<svg version="1.2" xmlns="http://www.w3.org/2000/svg" viewBox="0 0 32 32" width="32" height="32">
	<title>chat-svg</title>
	<style>
		.s0 { fill: #f96e1e } 
	</style>
	<path id="Layer" class="s0" d="m7.7 23.2c-0.1 0-0.2 0-0.3-0.1-0.2-0.1-0.4-0.4-0.4-0.7v-3.4c-1.2-0.3-2-1.4-2-2.6v-7c0-1.5 1.2-2.8 2.8-2.8h12c1.5 0 2.8 1.2 2.8 2.8v5c0 0.4-0.3 0.8-0.8 0.8-0.5 0-0.8-0.4-0.8-0.8v-5c0-0.7-0.6-1.2-1.2-1.2h-12c-0.8-0.1-1.3 0.5-1.3 1.2v7c0 0.7 0.6 1.3 1.2 1.3 0.4 0 0.8 0.3 0.8 0.8v2.2l2.7-2.7c0.1-0.1 0.3-0.2 0.5-0.2h2c0.4 0 0.8 0.3 0.8 0.8 0 0.5-0.3 0.8-0.8 0.8h-1.7l-3.8 3.8c-0.1-0.1-0.3 0-0.5 0z"/>
	<path id="Layer" fill-rule="evenodd" class="s0" d="m25.7 25.3c-0.1 0-0.3 0-0.4-0.1l-3-2.1h-6.6c-1.5 0-2.8-1.2-2.8-2.8v-4c0-1.5 1.2-2.8 2.8-2.8h8c1.5 0 2.8 1.2 2.8 2.8v8.2c0 0.3-0.2 0.5-0.4 0.7-0.1 0.1-0.3 0.1-0.4 0.1zm-10-10.2c-0.7 0-1.2 0.6-1.2 1.2v4c0 0.7 0.6 1.2 1.2 1.2h6.8c0.2 0 0.3 0 0.4 0.1l2 1.4v-6.8c0-0.7-0.6-1.2-1.2-1.2h-8z"/>
	<path id="Layer" class="s0" d="m22.7 19.2h-6c-0.4 0-0.8-0.3-0.8-0.8 0-0.5 0.3-0.8 0.8-0.8h6c0.4 0 0.8 0.3 0.8 0.8 0 0.5-0.4 0.8-0.8 0.8z"/>
</svg>