<svg version="1.2" xmlns="http://www.w3.org/2000/svg" viewBox="0 0 500 500" width="500" height="500">
	<title>icon-cloud-hosting-svg</title>
	<style>
		.s0 { opacity: .3;fill: #0073ec } 
		.s1 { opacity: .9;fill: #0073ec } 
	</style>
	<filter id="f0">
		<feFlood flood-color="#f96e1e" flood-opacity="1" />
		<feBlend mode="normal" in2="SourceGraphic"/>
		<feComposite in2="SourceAlpha" operator="in" />
	</filter>
	<g id="Layer" filter="url(#f0)">
		<path id="Layer" fill-rule="evenodd" class="s0" d="m499.4 227.6c1.9 16.2-0.9 32.5-7.9 47.1-7 14.6-18 27-31.7 35.6-13.8 8.7-29.7 13.3-45.9 13.3h-94.6v42.7c0 1.8 0.4 3.6 1 5.2 0.7 1.7 1.7 3.2 3 4.5 1.3 1.3 2.8 2.3 4.5 3 1.6 0.6 3.4 1 5.2 1h29.3c3.4-11.2 3.4 26.8 0 15.7h-29.3c-3.9 0-7.7-0.8-11.3-2.2-3.5-1.5-6.8-3.7-9.5-6.4-2.7-2.7-4.9-6-6.4-9.5-1.4-3.6-2.2-7.4-2.2-11.3v-42.7h-26.9v105.7c4.4 1.4-26.5 3.3-15.7 0v-105.6h-26.9v42.4c0 3.9-0.8 7.7-2.2 11.3-1.5 3.5-3.7 6.8-6.4 9.5-2.7 2.7-6 4.9-9.5 6.4-3.6 1.4-7.4 2.2-11.3 2.2h-37.8c-3.4 11.2-3.4-26.8 0-15.7h37.8c1.8 0 3.6-0.4 5.2-1 1.7-0.7 3.2-1.7 4.5-3 1.3-1.3 2.3-2.8 3-4.5 0.6-1.6 1-3.4 1-5.2v-42.5h-121.5c-50.9 0-93.7-39.3-96.7-90.1-0.7-11 0.6-22 3.7-32.6 3.1-10.6 8-20.5 14.4-29.4 6.5-9 14.5-16.7 23.5-22.9 9.1-6.2 19.2-10.8 29.9-13.6 1.7-7.6 4.6-14.9 8.8-21.6 4.1-6.6 9.3-12.5 15.4-17.4 6-4.9 12.9-8.7 20.3-11.3 7.3-2.6 15.1-4 22.9-4q2.6 0 5.2 0.2 2.6 0.2 5.2 0.6 2.6 0.3 5.2 0.9 2.5 0.6 5 1.4c16.9-27.5 42.1-48.9 72-61 29.9-12.1 62.9-14.4 94.2-6.4 31.3 8 59.2 25.8 79.6 50.8 20.4 25 32.3 55.9 33.9 88.1q6.1 1.9 11.9 4.7 5.7 2.8 11 6.4 5.3 3.6 10 7.9 4.7 4.3 8.7 9.3c10.2 12.7 16.5 27.9 18.4 44zm-126.3-124.9q0.7-1.4 0.9-3 0.1-1.6-0.3-3.1-0.5-1.6-1.5-2.8c-5.1-6.2-10.8-11.7-17.1-16.6-6.3-4.9-13.1-9.1-20.3-12.5-7.2-3.4-14.8-6-22.6-7.8-7.8-1.7-15.7-2.6-23.7-2.6q-1.6 0-3 0.6-1.5 0.6-2.6 1.7-1.1 1.1-1.7 2.6-0.6 1.4-0.6 3 0 1.6 0.6 3.1 0.6 1.4 1.7 2.6 1.1 1.1 2.6 1.7 1.4 0.6 3 0.6c6.8 0 13.6 0.8 20.2 2.3 6.7 1.5 13.1 3.7 19.3 6.6 6.1 2.9 12 6.5 17.3 10.7 5.4 4.2 10.3 8.9 14.6 14.2q0.6 0.7 1.2 1.2 0.7 0.6 1.5 0.9 0.8 0.4 1.7 0.6 0.8 0.2 1.7 0.2 0.7 0 1.4-0.1 0.7-0.1 1.3-0.4 0.7-0.2 1.3-0.5 0.6-0.4 1.1-0.8 1.2-1 2-2.4z"/>
		<path id="Layer" class="s1" d="m269 462.5h-0.6q-2.2-0.1-4.4-0.5-2.1-0.5-4.1-1.4-2.1-0.9-3.9-2.1-1.8-1.3-3.3-2.9c-3.1-3.1-5.2-7.1-6-11.5-0.8-4.3-0.3-8.8 1.4-12.8 1.7-4.1 4.6-7.5 8.3-9.9 3.7-2.5 8-3.7 12.4-3.7h0.6q2.2 0 4.4 0.5 2.1 0.4 4.2 1.3 2 0.9 3.8 2.2 1.8 1.3 3.3 2.9c3.1 3.1 5.2 7.1 6 11.5 0.8 4.3 0.3 8.8-1.4 12.8-1.7 4.1-4.6 7.5-8.3 9.9-3.7 2.5-8 3.7-12.4 3.7zm-113.3-52.2c-9.1 0-17.3-5.5-20.8-13.9-3.5-8.4-1.5-18.1 4.9-24.5 6.4-6.4 16.1-8.4 24.5-4.9 8.4 3.5 13.9 11.7 13.9 20.8 0 3-0.6 5.9-1.7 8.6-1.1 2.7-2.8 5.2-4.9 7.3-2.1 2.1-4.6 3.8-7.3 4.9-2.7 1.1-5.6 1.7-8.6 1.7z"/>
		<path id="Layer" class="s1" d="m390.8 408.6c-11.5 4.8-24.7-0.6-29.4-12.1-4.8-11.5 0.7-24.7 12.1-29.4 11.5-4.8 24.7 0.6 29.4 12.1 4.8 11.5-0.6 24.7-12.1 29.4z"/>
	</g>
</svg>