<svg version="1.2" xmlns="http://www.w3.org/2000/svg" viewBox="0 0 500 500" width="500" height="500">
	<title>icon-shared-hosting-svg</title>
	<style>
		.s0 { opacity: .3;fill: #f96e1e } 
		.s1 { opacity: .9;fill: #f96e1e } 
		.s2 { fill: #f96e1e } 
	</style>
	<g id="Layer">
		<path id="Layer" class="s0" d="m486.4 349.3c2.6 1.1 5.1 2.7 7.1 4.8 2.1 2 3.7 4.5 4.8 7.1 1.1 2.7 1.7 5.6 1.7 8.5v102.3c0 2.9-0.6 5.8-1.7 8.4-1.1 2.7-2.8 5.1-4.8 7.2-2.1 2-4.5 3.7-7.2 4.8-2.6 1.1-5.5 1.7-8.4 1.7h-455.8c-2.9 0-5.8-0.6-8.4-1.7-2.7-1.1-5.1-2.8-7.2-4.8-2-2.1-3.7-4.5-4.8-7.2-1.1-2.6-1.7-5.5-1.7-8.4v-102.3c0-2.9 0.6-5.8 1.7-8.4 1.1-2.7 2.8-5.1 4.8-7.2 2.1-2 4.5-3.7 7.2-4.8 2.6-1.1 5.5-1.7 8.4-1.7h455.8c2.9 0 5.8 0.6 8.5 1.7z"/>
		<path id="Layer" class="s1" d="m436 406.8c1.9 0.8 3.6 1.9 5 3.3 1.4 1.4 2.5 3.1 3.3 5 0.7 1.8 1.1 3.8 1.1 5.8 0 6.1-3.7 11.7-9.4 14-5.7 2.4-12.2 1.1-16.5-3.3-4.4-4.3-5.7-10.8-3.3-16.5 2.3-5.7 7.9-9.4 14-9.4 2 0 4 0.4 5.8 1.1zm-55.3 0c1.9 0.8 3.6 1.9 5 3.3 1.4 1.4 2.5 3.1 3.3 5 0.7 1.8 1.1 3.8 1.1 5.8 0 6.1-3.7 11.7-9.4 14-5.7 2.4-12.2 1.1-16.5-3.3-4.4-4.3-5.7-10.8-3.3-16.5 2.3-5.7 7.9-9.4 14-9.4 2 0 4 0.4 5.8 1.1zm-58.1 0.1c1.9 0.7 3.5 1.8 4.9 3.3 1.5 1.4 2.6 3 3.3 4.9 0.8 1.8 1.2 3.8 1.2 5.8 0 6.1-3.7 11.7-9.4 14-5.7 2.4-12.2 1.1-16.5-3.3-4.4-4.3-5.7-10.8-3.3-16.5 2.3-5.7 7.9-9.4 14-9.4 2 0 4 0.4 5.8 1.2z"/>
		<path id="Layer" class="s0" d="m323.5 117.8q0.8 1.2 1.4 2.6 0.5 1.4 0.8 2.9 0.3 1.4 0.3 2.9v8.9c0 5.9-0.7 11.8-2 17.5-1.4 5.7-3.4 11.3-6 16.5-2.6 5.3-5.9 10.3-9.6 14.8-3.8 4.5-8.1 8.6-12.8 12.1v60.8h-91.2v-60.8c-4.7-3.5-9-7.6-12.8-12.1-3.7-4.5-7-9.5-9.6-14.8-2.6-5.2-4.6-10.8-6-16.5-1.3-5.7-2-11.6-2-17.5v-8.9q0-1.5 0.3-2.9 0.3-1.5 0.8-2.9 0.6-1.4 1.4-2.6 0.9-1.2 1.9-2.3l6.3-6.3q1.1-1.1 1.9-2.3 0.9-1.3 1.4-2.6 0.6-1.4 0.9-2.9 0.3-1.5 0.3-3v-18.2q0-1.3 0.4-2.5 0.4-1.2 1.2-2.2 0.8-1 1.9-1.7 1.1-0.7 2.3-1c17.9-4.2 73.9-14.3 112 13.7q0.9 0.7 1.6 1.6 0.8 0.9 1.3 1.9 0.4 1 0.7 2.1 0.2 1.2 0.2 2.3v4q0 1.5 0.3 3 0.3 1.5 0.9 2.9 0.5 1.3 1.4 2.6 0.8 1.2 1.9 2.3l6.3 6.3q1 1.1 1.9 2.3zm129.3 60q0.8 1.3 1.4 2.7 0.6 1.3 0.8 2.8 0.3 1.5 0.3 3v9.7c0 4-0.5 8-1.6 11.8-1 3.9-2.5 7.6-4.5 11-2 3.5-4.4 6.6-7.3 9.5-2.8 2.8-5.9 5.2-9.4 7.2v32.1h-45.6v-32.1c-3.5-2-6.6-4.4-9.5-7.2-2.8-2.8-5.2-6-7.2-9.5-2-3.4-3.5-7.1-4.6-11-1-3.8-1.5-7.8-1.5-11.8v-8.9q0-1.5 0.3-3 0.3-1.4 0.8-2.8 0.6-1.4 1.4-2.7 0.9-1.2 1.9-2.3l13.8-13.8q1.1-1.1 2.3-1.9 1.3-0.9 2.7-1.5 1.5-0.5 3-0.8 1.5-0.3 3-0.2c24.3 0.7 45.9 5.9 57.6 17.4q1.1 1.1 1.9 2.3z"/>
		<path id="Layer" fill-rule="evenodd" class="s2" d="m250 256.8l-24.3 24.2c-0.8 0.8-1.7 1.4-2.7 1.7-1 0.4-2.1 0.6-3.2 0.5-1 0-2.1-0.3-3-0.8-1-0.5-1.8-1.2-2.5-2.1l-25.1-33.2 6.5-13.8c0.5-1 1.1-1.8 1.9-2.5 0.8-0.7 1.8-1.2 2.8-1.5 1.1-0.3 2.1-0.4 3.2-0.3 1.1 0.2 2.1 0.5 3 1.1zm0 0l24.3 24.2c0.8 0.8 1.7 1.4 2.7 1.7 1 0.4 2.1 0.6 3.2 0.5 1 0 2.1-0.3 3-0.8 1-0.5 1.8-1.2 2.5-2.1l25.1-33.2-6.5-13.8c-0.5-1-1.1-1.8-1.9-2.5-0.8-0.7-1.8-1.2-2.8-1.5-1.1-0.3-2.1-0.4-3.2-0.3-1.1 0.2-2.1 0.5-3 1.1z"/>
		<path id="Layer" class="s1" d="m324.2 7.1c1.9 0.7 3.5 1.8 4.9 3.3 1.5 1.4 2.6 3 3.3 4.9 0.8 1.8 1.2 3.8 1.2 5.8v63.7q0 3.1-0.2 6.1-0.3 3-0.8 6.1-0.5 3-1.2 5.9-0.7 3-1.7 5.9l-2.5 7.6q-0.3 0.9-0.5 1.8-0.2 0.8-0.4 1.8-0.1 0.9-0.2 1.8-0.1 0.9-0.1 1.8v3.9-1.3q0-1.5-0.3-2.9-0.3-1.5-0.8-2.9-0.6-1.4-1.4-2.6-0.9-1.2-1.9-2.3l-6.3-6.3q-1.1-1.1-1.9-2.3-0.9-1.3-1.4-2.6-0.6-1.4-0.9-2.9-0.3-1.5-0.3-3v-4q0-1.1-0.2-2.3-0.3-1.1-0.7-2.1-0.5-1-1.3-1.9-0.7-0.9-1.6-1.6c-38.1-28-94.1-17.9-112-13.7q-1.2 0.3-2.3 1-1.1 0.7-1.9 1.7-0.8 1-1.2 2.2-0.4 1.2-0.4 2.5v18.2q0 1.5-0.3 3-0.3 1.5-0.9 2.9-0.5 1.3-1.4 2.6-0.8 1.2-1.9 2.3l-6.3 6.3q-1 1.1-1.9 2.3-0.8 1.2-1.4 2.6-0.5 1.4-0.8 2.9-0.3 1.4-0.3 2.9v-2.6q0-0.9-0.1-1.8-0.1-0.9-0.2-1.8-0.2-1-0.4-1.8-0.2-0.9-0.5-1.8l-2.5-7.6q-1-2.9-1.7-5.9-0.7-2.9-1.2-5.9-0.5-3.1-0.8-6.1-0.2-3-0.2-6.1v-18.1c0-8 1.6-15.9 4.6-23.3 3.1-7.3 7.6-14 13.2-19.7 5.7-5.6 12.4-10.1 19.7-13.2 7.4-3 15.3-4.6 23.3-4.6h91.2c2 0 4 0.4 5.8 1.2zm129.3 114c1.9 0.7 3.5 1.8 4.9 3.3 1.5 1.4 2.6 3 3.3 4.9 0.8 1.8 1.2 3.8 1.2 5.8v14.3q0 2.1-0.1 4.2-0.2 2.1-0.5 4.2-0.3 2.1-0.7 4.2-0.4 2.1-1 4.1l-5.4 18.7q-0.1-1.3-0.4-2.6-0.4-1.2-0.9-2.4-0.6-1.2-1.3-2.3-0.8-1.1-1.7-2c-11.7-11.5-33.3-16.7-57.6-17.4q-0.7 0-1.3 0-0.7 0-1.4 0.1-0.7 0.1-1.3 0.3-0.7 0.2-1.3 0.4l-1.1-0.9c-2 0-4-0.4-5.8-1.2-1.9-0.8-3.5-1.9-5-3.3-1.4-1.4-2.5-3.1-3.2-5-0.8-1.8-1.2-3.8-1.2-5.8 0-3 0.6-6 1.7-8.7 1.2-2.8 2.9-5.3 5-7.4 2.1-2.1 4.6-3.8 7.4-5 2.7-1.1 5.7-1.7 8.7-1.7h53.2c2 0 4 0.4 5.8 1.2z"/>
		<path id="Layer" class="s1" d="m364.1 188.4l-4.5-13.5q-0.8-2.3-1.4-4.7-0.5-2.4-0.9-4.8-0.4-2.4-0.6-4.8-0.2-2.5-0.2-4.9v-5.4c0-3 0.6-6 1.7-8.7 1.2-2.8 2.9-5.3 5-7.4 2.1-2.1 4.6-3.8 7.4-5 2.7-1.1 5.7-1.7 8.7-1.7h15.2v30.6h-1.2q-1.5-0.1-3 0.2-1.5 0.3-3 0.8-1.4 0.6-2.7 1.5-1.2 0.8-2.3 1.9l-13.8 13.8q-1 1.1-1.9 2.3-0.8 1.3-1.4 2.7-0.5 1.4-0.8 2.8-0.3 1.5-0.3 3zm-345.8 58.1q-1-1.1-1.5-2.4-0.6-1.4-0.6-2.9 0-1.4 0.5-2.8c6.5-17.2 11.6-46.8 12.8-62.2 2.1-29.3 24.1-53.2 54-53.2 29.9 0 52 23.9 54.1 53.2 1.1 15.4 6.3 45 12.8 62.2q0.5 1.4 0.5 2.8 0 1.5-0.6 2.9-0.5 1.3-1.5 2.4-1.1 1-2.4 1.6-4.4 2-8.9 3.7-4.5 1.8-9.2 3.2-4.6 1.4-9.3 2.5-4.7 1.1-9.5 1.9-0.9-1-1.7-2.2-0.7-1.2-1.3-2.5-0.5-1.3-0.7-2.7-0.3-1.4-0.3-2.8v-13.7c3.2-1.8 6.2-4.1 8.8-6.6 2.7-2.6 5-5.4 7-8.5 2-3.2 3.5-6.5 4.7-10 1.2-3.5 1.9-7.1 2.2-10.8q0.1-0.9-0.1-1.7-0.1-0.9-0.4-1.7-0.4-0.8-0.9-1.5-0.5-0.7-1.2-1.2-5.6-4.7-11.7-8.7-6.1-4.1-12.6-7.4-6.5-3.4-13.4-6-6.8-2.6-13.9-4.4-1.3-0.3-2.6-0.1-1.3 0.1-2.4 0.7-1.2 0.6-2.1 1.5-0.9 0.9-1.5 2.1-1 1.9-2.1 3.8-1.1 1.8-2.4 3.5-1.4 1.8-2.8 3.4-1.5 1.6-3.1 3-1.5 1.3-3.2 2.6-1.6 1.2-3.3 2.4-1.7 1.1-3.4 2.1-1.8 1.1-3.6 2-1.1 0.6-1.9 1.4-0.8 0.8-1.4 1.9-0.5 1.1-0.7 2.2-0.2 1.2 0 2.4c0.4 3.5 1.3 6.9 2.5 10.1 1.2 3.3 2.8 6.4 4.8 9.3 1.9 2.9 4.2 5.6 6.7 8 2.6 2.4 5.4 4.5 8.4 6.2v13.7q0 1.4-0.3 2.7-0.2 1.3-0.7 2.6-0.4 1.3-1.1 2.5-0.7 1.2-1.6 2.2-4.6-0.8-9.1-1.9-4.6-1.1-9-2.5-4.5-1.4-8.8-3.1-4.4-1.7-8.6-3.6-1.3-0.6-2.4-1.6zm-0.7 100.2q-1-0.7-1.8-1.7-0.7-1-1.1-2.2-0.4-1.2-0.4-2.4v-44.9q0-3.2 0.9-6.2 0.9-3.1 2.5-5.8 1.7-2.7 4-4.8 2.4-2.2 5.2-3.6l17.5-8.8c4.1 6.4 9.8 11.7 16.5 15.4 6.7 3.6 14.2 5.5 21.8 5.5 7.6 0 15.1-1.9 21.8-5.5 6.7-3.7 12.4-9 16.5-15.4l9.4 4.8q-2.3 2.1-4.1 4.7-1.8 2.5-3 5.4-1.3 2.9-1.9 5.9-0.7 3.1-0.7 6.2v47.1q0 1.2 0.4 2.3 0.3 1.2 1 2.1 0.7 1 1.7 1.7 1 0.7 2.1 1.1h-103.8l-2.3 0.2q-1.2-0.4-2.2-1.1zm360.3-62.6c-1-2.9-2.3-5.7-4.1-8.3-1.8-2.5-4-4.8-6.5-6.7-2.4-1.9-5.2-3.3-8.1-4.4l-6.7-2.4 34.4-9.9 4.6 3.1c2.7 1.8 5.6 3.1 8.7 4.1 3.1 0.9 6.3 1.4 9.5 1.4 3.2 0 6.4-0.5 9.5-1.4 3.1-1 6-2.3 8.7-4.1l4.6-3.1 36.7 10.5c2.4 0.7 4.6 1.7 6.6 3.1 2 1.4 3.8 3.1 5.3 5.1 1.5 2 2.6 4.1 3.4 6.5 0.8 2.3 1.2 4.7 1.2 7.2v55.6q0 1.2-0.4 2.4-0.4 1.2-1.1 2.2-0.8 1-1.8 1.7-1 0.7-2.2 1.1l-2.3-0.2h-103.8q1.1-0.4 2.1-1.1 1-0.7 1.7-1.7 0.7-0.9 1-2.1 0.4-1.1 0.4-2.3v-47.1c0-3.1-0.5-6.2-1.4-9.2z"/>
		<path id="Layer" class="s0" d="m17.6 346.7q-1-0.7-1.8-1.7-0.7-1-1.1-2.2-0.4-1.2-0.4-2.4v-44.9q0-3.2 0.9-6.2 0.9-3.1 2.5-5.8 1.7-2.7 4-4.8 2.4-2.2 5.2-3.6l24.6-12.3q1.9-0.9 3.5-2.4 1.5-1.4 2.6-3.2 1.2-1.8 1.7-3.8 0.6-2.1 0.6-4.2v-13.7c-3-1.7-5.8-3.8-8.4-6.2-2.5-2.4-4.8-5.1-6.7-8-2-2.9-3.6-6-4.8-9.3-1.2-3.2-2.1-6.6-2.5-10.1q-0.2-1.2 0-2.4 0.2-1.1 0.7-2.2 0.6-1.1 1.4-1.9 0.8-0.8 1.9-1.4 1.8-0.9 3.6-2 1.7-1 3.4-2.1 1.7-1.2 3.3-2.4 1.7-1.3 3.2-2.6 1.6-1.4 3.1-3 1.4-1.6 2.8-3.4 1.3-1.7 2.4-3.5 1.1-1.9 2.1-3.8 0.6-1.2 1.5-2.1 0.9-0.9 2.1-1.5 1.1-0.6 2.4-0.7 1.3-0.2 2.6 0.1 7.1 1.8 13.9 4.4 6.9 2.6 13.4 6 6.5 3.3 12.6 7.4 6.1 4 11.7 8.7 0.7 0.5 1.2 1.2 0.5 0.7 0.9 1.5 0.3 0.8 0.4 1.7 0.2 0.8 0.1 1.7c-0.3 3.7-1 7.3-2.2 10.8-1.2 3.5-2.7 6.8-4.7 10-2 3.1-4.3 5.9-7 8.5-2.6 2.5-5.6 4.8-8.8 6.6v13.7q0 2.1 0.6 4.1 0.6 2.1 1.7 3.9 1.1 1.8 2.7 3.2 1.5 1.4 3.4 2.4l16.5 8.3q-2.3 2.1-4.1 4.7-1.8 2.5-3 5.4-1.3 2.9-1.9 5.9-0.7 3.1-0.7 6.2v47.1q0 1.2 0.4 2.3 0.3 1.2 1 2.1 0.7 1 1.7 1.7 1 0.7 2.1 1.1h-103.8l-2.3 0.2q-1.2-0.4-2.2-1.1z"/>
		<path id="Layer" class="s0" d="m123.8 346.5q-1-0.7-1.7-1.7-0.7-0.9-1-2.1-0.4-1.1-0.4-2.3v-47.1c0-3.1 0.5-6.2 1.4-9.2 1-2.9 2.3-5.7 4.1-8.3 1.8-2.5 4-4.8 6.5-6.7 2.4-1.9 5.2-3.3 8.1-4.4l63.6-23.1 45.6 15.2 45.6-15.2 63.6 23.1c2.9 1.1 5.7 2.5 8.1 4.4 2.5 1.9 4.7 4.2 6.5 6.7 1.8 2.6 3.1 5.4 4.1 8.3 0.9 3 1.4 6.1 1.4 9.2v47.1q0 1.2-0.4 2.3-0.3 1.2-1 2.1-0.7 1-1.7 1.7-1 0.7-2.1 1.1h-248.2q-1.1-0.4-2.1-1.1z"/>
	</g>
</svg>