<svg version="1.2" xmlns="http://www.w3.org/2000/svg" viewBox="0 0 500 500" width="500" height="500">
	<title>icon-vps-hosting-svg</title>
	<style>
		.s0 { fill: none } 
		.s1 { opacity: .9;fill: #0073ec } 
		.s2 { opacity: .3;fill: #0073ec } 
		.s3 { opacity: .3;fill: #f96e1e } 
	</style>
	<path id="Layer" class="s0" d="m403 0v228.7h-7.9v-114.6c0-1.9-0.4-3.7-1.1-5.4-0.7-1.7-1.7-3.3-3-4.6-1.3-1.3-2.9-2.3-4.6-3-1.7-0.7-3.5-1.1-5.4-1.1h-247.9c-1.9 0-3.7 0.4-5.4 1.1-1.7 0.7-3.3 1.7-4.6 3-1.3 1.3-2.3 2.9-3 4.6-0.7 1.7-1.1 3.5-1.1 5.4v34.7h-9.4q-0.9 0-1.8 0.4-0.9 0.3-1.5 1-0.7 0.6-1 1.5-0.4 0.9-0.4 1.8v20.3q0 0.9 0.4 1.8 0.3 0.9 1 1.5 0.6 0.7 1.5 1 0.9 0.4 1.8 0.4h9.4v14.2h-9.4q-0.9 0-1.8 0.4-0.9 0.3-1.5 1-0.7 0.6-1 1.5-0.4 0.9-0.4 1.8v20.3q0 0.9 0.4 1.8 0.3 0.9 1 1.5 0.6 0.7 1.5 1 0.9 0.4 1.8 0.4h9.4v6.3h-22v-228.7h160.1c-12.6 0-25 2.4-36.6 7.2-11.6 4.8-22.2 11.9-31.1 20.8-8.9 8.8-15.9 19.4-20.7 31-4.8 11.6-7.3 24-7.3 36.6v4.4h35.5v-4.4c0.6-15.5 7.2-30.2 18.5-41 11.2-10.7 26.1-16.7 41.7-16.7 15.5 0 30.4 6 41.6 16.7 11.3 10.8 17.9 25.5 18.5 41v4.4h35.5v-4.4c0-12.6-2.5-25-7.3-36.6-4.8-11.6-11.8-22.1-20.7-31-8.9-8.9-19.4-15.9-31-20.7-11.6-4.8-24-7.3-36.6-7.3z"/>
	<filter id="f0">
		<feFlood flood-color="#f96e1e" flood-opacity="1" />
		<feBlend mode="normal" in2="SourceGraphic"/>
		<feComposite in2="SourceAlpha" operator="in" />
	</filter>
	<g id="Layer" filter="url(#f0)">
		<path id="Layer" class="s1" d="m386.4 101.1c1.7 0.7 3.3 1.7 4.6 3 1.3 1.3 2.3 2.9 3 4.6 0.7 1.7 1.1 3.5 1.1 5.4v114.6h-198.8v-79.9q0-1.4-0.3-2.8-0.2-1.3-0.8-2.6-0.5-1.3-1.3-2.4-0.7-1.2-1.7-2.2-1-1-2.1-1.8-1.2-0.7-2.5-1.3-1.3-0.5-2.6-0.7-1.4-0.3-2.8-0.3h-63.2v-20.6c0-1.9 0.4-3.7 1.1-5.4 0.7-1.7 1.7-3.3 3-4.6 1.3-1.3 2.9-2.3 4.6-3 1.7-0.7 3.5-1.1 5.4-1.1h247.9c1.9 0 3.7 0.4 5.4 1.1z"/>
		<path id="Layer" class="s2" d="m190.5 29.9c17.8-17.2 41.7-26.9 66.5-26.9 24.9 0 48.8 9.7 66.6 26.9 17.9 17.3 28.3 40.9 29.1 65.7v4.4h-35.5v-4.4c-0.6-15.5-7.2-30.2-18.5-41-11.2-10.7-26.1-16.7-41.6-16.7-15.6 0-30.5 6-41.7 16.7-11.3 10.8-17.9 25.5-18.5 41v4.4h-35.5v-4.4c0.8-24.8 11.2-48.4 29.1-65.7z"/>
		<path id="Layer" fill-rule="evenodd" class="s1" d="m181.8 175.6q-0.3 0.9-1 1.5-0.6 0.7-1.5 1-0.9 0.4-1.8 0.4h-67.9q-0.9 0-1.8-0.4-0.9-0.3-1.5-1-0.7-0.6-1-1.5-0.4-0.9-0.4-1.8v-20.3q0-0.9 0.4-1.8 0.3-0.9 1-1.5 0.6-0.7 1.5-1 0.9-0.4 1.8-0.4h67.9q0.9 0 1.8 0.4 0.9 0.3 1.5 1 0.7 0.6 1 1.5 0.4 0.9 0.4 1.8v20.3q0 0.9-0.4 1.8zm-55.5-14.6q-0.5-1.3-1.5-2.3-1-1-2.3-1.6-1.3-0.5-2.7-0.5-1.4 0-2.7 0.5-1.3 0.6-2.3 1.6-1 1-1.6 2.3-0.5 1.3-0.5 2.7 0 1.4 0.5 2.7 0.6 1.3 1.6 2.3 1 1 2.3 1.5 1.3 0.5 2.7 0.5 1.4 0 2.7-0.5 1.3-0.6 2.2-1.6 1-0.9 1.6-2.2 0.5-1.3 0.5-2.7 0-1.4-0.5-2.7zm47.6 0q-0.6-1.3-1.6-2.3-1-1-2.3-1.6-1.3-0.5-2.7-0.5-1.4 0-2.7 0.5-1.3 0.6-2.3 1.6-1 1-1.5 2.3-0.5 1.3-0.5 2.7 0 1.4 0.5 2.7 0.6 1.3 1.6 2.2 0.9 1 2.2 1.6 1.3 0.5 2.7 0.5 1.4 0 2.7-0.5 1.3-0.5 2.3-1.5 1-1 1.6-2.3 0.5-1.3 0.5-2.7 0-1.4-0.5-2.7z"/>
		<path id="Layer" class="s2" d="m170 157.1q1.3 0.6 2.3 1.6 1 1 1.6 2.3 0.5 1.3 0.5 2.7 0 1.4-0.5 2.7-0.6 1.3-1.6 2.3-1 1-2.3 1.5-1.3 0.5-2.7 0.5-1.4 0-2.7-0.5-1.3-0.6-2.2-1.6-1-0.9-1.6-2.2-0.5-1.3-0.5-2.7 0-1.4 0.5-2.7 0.5-1.3 1.5-2.3 1-1 2.3-1.6 1.3-0.5 2.7-0.5 1.4 0 2.7 0.5z"/>
		<path id="Layer" class="s2" d="m112.7 163.6c0-3.8 3.2-7 7-7 3.9 0 7.1 3.2 7.1 7v0.1c0 3.9-3.2 7-7.1 7-3.8 0-7-3.1-7-7z"/>
		<path id="Layer" fill-rule="evenodd" class="s1" d="m181.8 219.5q-0.3 0.9-1 1.5-0.6 0.7-1.5 1-0.9 0.4-1.8 0.4h-67.9q-0.9 0-1.8-0.4-0.9-0.3-1.5-1-0.7-0.6-1-1.5-0.4-0.9-0.4-1.8v-20.3q0-0.9 0.4-1.8 0.3-0.9 1-1.5 0.6-0.7 1.5-1 0.9-0.4 1.8-0.4h67.9q0.9 0 1.8 0.4 0.9 0.3 1.5 1 0.7 0.6 1 1.5 0.4 0.9 0.4 1.8v20.3q0 0.9-0.4 1.8zm-55.5-14.7q-0.6-1.3-1.6-2.2-0.9-1-2.2-1.6-1.3-0.5-2.7-0.5-1.4 0-2.7 0.5-1.3 0.5-2.3 1.5-1 1-1.6 2.3-0.5 1.3-0.5 2.7 0 1.4 0.5 2.7 0.6 1.3 1.6 2.3 1 1 2.3 1.6 1.3 0.5 2.7 0.5 1.4 0 2.7-0.5 1.3-0.6 2.3-1.6 1-1 1.5-2.3 0.5-1.3 0.5-2.7 0-1.4-0.5-2.7zm47.6 0q-0.6-1.3-1.6-2.3-1-1-2.3-1.5-1.3-0.5-2.7-0.5-1.4 0-2.7 0.5-1.3 0.6-2.2 1.6-1 0.9-1.6 2.2-0.5 1.3-0.5 2.7 0 1.4 0.5 2.7 0.5 1.3 1.5 2.3 1 1 2.3 1.6 1.3 0.5 2.7 0.5 1.4 0 2.7-0.5 1.3-0.6 2.3-1.6 1-1 1.6-2.3 0.5-1.3 0.5-2.7 0-1.4-0.5-2.7z"/>
		<path id="Layer" class="s2" d="m170 201q1.3 0.5 2.3 1.5 1 1 1.6 2.3 0.5 1.3 0.5 2.7 0 1.4-0.5 2.7-0.6 1.3-1.6 2.3-1 1-2.3 1.6-1.3 0.5-2.7 0.5-1.4 0-2.7-0.5-1.3-0.6-2.3-1.6-1-1-1.5-2.3-0.5-1.3-0.5-2.7 0-1.4 0.5-2.7 0.6-1.3 1.6-2.2 0.9-1 2.2-1.6 1.3-0.5 2.7-0.5 1.4 0 2.7 0.5z"/>
		<path id="Layer" class="s3" d="m112.7 207.5c0-3.8 3.2-7 7-7 3.9 0 7.1 3.2 7.1 7v0.1c0 3.9-3.2 7-7.1 7-3.8 0-7-3.1-7-7z"/>
		<path id="Layer" class="s3" d="m459.9 229.9c2.4 1 4.5 2.4 6.4 4.2 1.8 1.9 3.2 4 4.2 6.4 1 2.4 1.5 4.9 1.5 7.5v90.9c0 2.6-0.5 5.1-1.5 7.5-1 2.4-2.5 4.5-4.3 6.3-1.8 1.8-3.9 3.3-6.3 4.3-2.4 1-4.9 1.5-7.5 1.5h-404.8c-2.6 0-5.1-0.5-7.5-1.5-2.4-1-4.5-2.5-6.3-4.3-1.8-1.8-3.3-3.9-4.3-6.3-1-2.4-1.5-4.9-1.5-7.5v-90.9c0-2.6 0.5-5.1 1.5-7.5 1-2.4 2.4-4.5 4.2-6.4 1.9-1.8 4-3.2 6.4-4.2 2.4-1 4.9-1.5 7.5-1.5h404.8c2.6 0 5.1 0.5 7.5 1.5zm0 141.5c2.4 1 4.5 2.4 6.4 4.2 1.8 1.9 3.2 4 4.2 6.4 1 2.4 1.5 4.9 1.5 7.5v90.9c0 2.6-0.5 5.1-1.5 7.5-1 2.4-2.4 4.5-4.2 6.4-1.9 1.8-4 3.2-6.4 4.2-2.4 1-4.9 1.5-7.5 1.5h-404.8c-2.6 0-5.1-0.5-7.5-1.5-2.4-1-4.5-2.4-6.4-4.2-1.8-1.9-3.2-4-4.2-6.4-1-2.4-1.5-4.9-1.5-7.5v-90.9c0-2.6 0.5-5.1 1.5-7.5 1-2.4 2.4-4.5 4.2-6.4 1.9-1.8 4-3.2 6.4-4.2 2.4-1 4.9-1.5 7.5-1.5h404.8c2.6 0 5.1 0.5 7.5 1.5z"/>
		<path id="Layer" class="s1" d="m309.4 306.9c-5.5 0-10.4-3.3-12.5-8.4-2.1-5-0.9-10.8 3-14.7 3.9-3.8 9.7-5 14.7-2.8 5.1 2.1 8.3 7 8.3 12.5 0 1.8-0.3 3.5-1 5.2-0.7 1.6-1.7 3.1-3 4.3-1.2 1.3-2.7 2.2-4.3 2.9-1.7 0.7-3.4 1-5.2 1zm51.6 0c-5.5 0-10.4-3.3-12.5-8.3-2.1-5.1-0.9-10.9 3-14.7 3.8-3.9 9.6-5.1 14.7-3 5 2.1 8.3 7 8.3 12.5 0 1.8-0.3 3.5-1 5.2-0.7 1.6-1.7 3.1-2.9 4.4-1.3 1.2-2.8 2.2-4.4 2.9-1.7 0.7-3.4 1-5.2 1zm49 0c-5.5 0-10.4-3.3-12.5-8.3-2.1-5.1-0.9-10.9 3-14.7 3.8-3.9 9.6-5.1 14.7-3 5 2.1 8.3 7 8.3 12.5 0 1.8-0.3 3.5-1 5.2-0.7 1.6-1.7 3.1-2.9 4.4-1.3 1.2-2.8 2.2-4.4 2.9-1.7 0.7-3.4 1-5.2 1zm-100.6 141.6c-5.5 0-10.4-3.3-12.5-8.3-2.1-5.1-0.9-10.9 3-14.7 3.8-3.9 9.6-5.1 14.7-3 5 2.1 8.3 7 8.3 12.5 0 1.8-0.3 3.5-1 5.2-0.7 1.6-1.7 3.1-2.9 4.4-1.3 1.2-2.8 2.2-4.4 2.9-1.7 0.7-3.4 1-5.2 1zm51.6-0.1c-5.5 0-10.4-3.3-12.5-8.3-2.1-5.1-0.9-10.9 3-14.7 3.8-3.9 9.6-5.1 14.7-3 5 2.1 8.3 7 8.3 12.5 0 1.8-0.3 3.5-1 5.2-0.7 1.6-1.7 3.1-2.9 4.4-1.3 1.2-2.8 2.2-4.4 2.9-1.7 0.7-3.4 1-5.2 1zm49 0c-5.5 0-10.4-3.3-12.5-8.3-2.1-5.1-0.9-10.9 3-14.7 3.8-3.9 9.6-5.1 14.7-3 5 2.1 8.3 7 8.3 12.5 0 1.8-0.3 3.5-1 5.2-0.7 1.6-1.7 3.1-2.9 4.4-1.3 1.2-2.8 2.2-4.4 2.9-1.7 0.7-3.4 1-5.2 1z"/>
		<path id="Layer" class="s2" d="m179.3 222q0.9-0.3 1.5-1 0.7-0.6 1-1.5 0.4-0.9 0.4-1.8v-20.3q0-0.9-0.4-1.8-0.3-0.9-1-1.5-0.6-0.7-1.5-1-0.9-0.4-1.8-0.4h-58.5v-14.2h58.5q0.9 0 1.8-0.4 0.9-0.3 1.5-1 0.7-0.6 1-1.5 0.4-0.9 0.4-1.8v-20.3q0-0.9-0.4-1.8-0.3-0.9-1-1.5-0.6-0.7-1.5-1-0.9-0.4-1.8-0.4h-58.5v-14.1h63.2q1.4 0 2.8 0.3 1.3 0.2 2.6 0.7 1.3 0.6 2.5 1.3 1.1 0.8 2.1 1.8 1 1 1.7 2.2 0.8 1.1 1.3 2.4 0.6 1.3 0.8 2.6 0.3 1.4 0.3 2.8v79.6h-77.3v-6h58.5q0.9 0 1.8-0.4z"/>
	</g>
</svg>