<svg version="1.2" xmlns="http://www.w3.org/2000/svg" viewBox="0 0 122 131" width="122" height="131">
	<title>SVG</title>
	<defs>
		<linearGradient id="g1" x1="97.9" y1="104.7" x2="97.9" y2="22.1" gradientUnits="userSpaceOnUse">
			<stop offset="0" stop-color="#eff0f8"/>
			<stop offset="1" stop-color="#e0e0e0"/>
		</linearGradient>
		<linearGradient id="g2" x1="82.8" y1="37" x2="80.9" y2="37" gradientUnits="userSpaceOnUse">
			<stop offset="0" stop-color="#c0c6ce"/>
			<stop offset=".1" stop-color="#c6cbd2"/>
			<stop offset=".4" stop-color="#dee0e2"/>
			<stop offset=".7" stop-color="#ececec"/>
			<stop offset="1" stop-color="#f1f0ef"/>
		</linearGradient>
		<linearGradient id="g3" x1="80.6" y1="37.2" x2="82.3" y2="37.2" gradientUnits="userSpaceOnUse">
			<stop offset="0" stop-color="#b8bec6"/>
			<stop offset=".8" stop-color="#bdc3cb"/>
			<stop offset="1" stop-color="#c0c6ce"/>
		</linearGradient>
		<linearGradient id="g4" x1="51.1" y1="19" x2="49.1" y2="19" gradientUnits="userSpaceOnUse">
			<stop offset="0" stop-color="#c0c6ce"/>
			<stop offset=".1" stop-color="#c6cbd2"/>
			<stop offset=".4" stop-color="#dee0e2"/>
			<stop offset=".7" stop-color="#ececec"/>
			<stop offset="1" stop-color="#f1f0ef"/>
		</linearGradient>
		<linearGradient id="g5" x1="48.9" y1="19.2" x2="50.5" y2="19.2" gradientUnits="userSpaceOnUse">
			<stop offset="0" stop-color="#b8bec6"/>
			<stop offset=".8" stop-color="#bdc3cb"/>
			<stop offset="1" stop-color="#c0c6ce"/>
		</linearGradient>
		<linearGradient id="g6" x1="83.1" y1="100.2" x2="81.2" y2="100.2" gradientUnits="userSpaceOnUse">
			<stop offset="0" stop-color="#c0c6ce"/>
			<stop offset=".1" stop-color="#c6cbd2"/>
			<stop offset=".4" stop-color="#dee0e2"/>
			<stop offset=".7" stop-color="#ececec"/>
			<stop offset="1" stop-color="#f1f0ef"/>
		</linearGradient>
		<linearGradient id="g7" x1="80.9" y1="100.5" x2="82.5" y2="100.5" gradientUnits="userSpaceOnUse">
			<stop offset="0" stop-color="#b8bec6"/>
			<stop offset=".8" stop-color="#bdc3cb"/>
			<stop offset="1" stop-color="#c0c6ce"/>
		</linearGradient>
		<linearGradient id="g8" x1="51" y1="81.6" x2="49" y2="81.6" gradientUnits="userSpaceOnUse">
			<stop offset="0" stop-color="#c0c6ce"/>
			<stop offset=".1" stop-color="#c6cbd2"/>
			<stop offset=".4" stop-color="#dee0e2"/>
			<stop offset=".7" stop-color="#ececec"/>
			<stop offset="1" stop-color="#f1f0ef"/>
		</linearGradient>
		<linearGradient id="g9" x1="48.8" y1="81.8" x2="50.4" y2="81.8" gradientUnits="userSpaceOnUse">
			<stop offset="0" stop-color="#b8bec6"/>
			<stop offset=".8" stop-color="#bdc3cb"/>
			<stop offset="1" stop-color="#c0c6ce"/>
		</linearGradient>
		<linearGradient id="g10" x1="51.7" y1="17.9" x2="102.8" y2="17.9" gradientUnits="userSpaceOnUse">
			<stop offset="0" stop-color="#eff0f8"/>
			<stop offset="1" stop-color="#e2e2e2"/>
		</linearGradient>
		<linearGradient id="g11" x1="85.6" y1="27.1" x2="105.4" y2="27.1" gradientUnits="userSpaceOnUse">
			<stop offset="0" stop-color="#e9e8e9"/>
			<stop offset="1" stop-color="#c7c7c7"/>
		</linearGradient>
		<linearGradient id="g12" x1="97.8" y1="78.2" x2="97.8" y2="45.8" gradientUnits="userSpaceOnUse">
			<stop offset="0" stop-color="#b8bfc7"/>
			<stop offset="1" stop-color="#c0c7cf"/>
		</linearGradient>
		<linearGradient id="g13" x1="89.5" y1="77.2" x2="116.2" y2="77.2" gradientUnits="userSpaceOnUse">
			<stop offset="0" stop-color="#9aa6d4"/>
			<stop offset="1" stop-color="#e9e8e9"/>
		</linearGradient>
		<clipPath clipPathUnits="userSpaceOnUse" id="cp1">
			<path d="m89.5 77.2v-20.8l14.8-8.6v20.9z"/>
		</clipPath>
		<linearGradient id="g14" x1="88.3" y1="70.4" x2="114.9" y2="70.4" gradientUnits="userSpaceOnUse">
			<stop offset="0" stop-color="#c0bff6"/>
			<stop offset=".3" stop-color="#c5c4f7"/>
			<stop offset=".6" stop-color="#d3d2f9"/>
			<stop offset="1" stop-color="#e9e9fd"/>
		</linearGradient>
		<linearGradient id="g15" x1="86.6" y1="68.4" x2="93.4" y2="68.4" gradientUnits="userSpaceOnUse">
			<stop offset="0" stop-color="#c0bff6"/>
			<stop offset=".3" stop-color="#c5c4f7"/>
			<stop offset=".6" stop-color="#d3d2f9"/>
			<stop offset="1" stop-color="#e9e9fd"/>
		</linearGradient>
		<linearGradient id="g16" x1="92.8" y1="70.5" x2="94.5" y2="70.5" gradientUnits="userSpaceOnUse">
			<stop offset=".1" stop-color="#4e9dd5"/>
			<stop offset="1" stop-color="#68bbe8"/>
		</linearGradient>
		<linearGradient id="g17" x1="62.6" y1="9.2" x2="69.2" y2="9.2" gradientUnits="userSpaceOnUse">
			<stop offset="0" stop-color="#7f8f9e"/>
			<stop offset=".2" stop-color="#8493a2"/>
			<stop offset=".4" stop-color="#92a0ad"/>
			<stop offset=".6" stop-color="#aab5bf"/>
			<stop offset=".9" stop-color="#cbd1d7"/>
			<stop offset="1" stop-color="#dee2e6"/>
		</linearGradient>
		<linearGradient id="g18" x1="64.3" y1="10.2" x2="70.9" y2="10.2" gradientUnits="userSpaceOnUse">
			<stop offset="0" stop-color="#7f8f9e"/>
			<stop offset=".2" stop-color="#8493a2"/>
			<stop offset=".4" stop-color="#92a0ad"/>
			<stop offset=".6" stop-color="#aab5bf"/>
			<stop offset=".9" stop-color="#cbd1d7"/>
			<stop offset="1" stop-color="#dee2e6"/>
		</linearGradient>
		<linearGradient id="g19" x1="66" y1="11.1" x2="72.6" y2="11.1" gradientUnits="userSpaceOnUse">
			<stop offset="0" stop-color="#7f8f9e"/>
			<stop offset=".2" stop-color="#8493a2"/>
			<stop offset=".4" stop-color="#92a0ad"/>
			<stop offset=".6" stop-color="#aab5bf"/>
			<stop offset=".9" stop-color="#cbd1d7"/>
			<stop offset="1" stop-color="#dee2e6"/>
		</linearGradient>
		<linearGradient id="g20" x1="67.7" y1="12.1" x2="74.3" y2="12.1" gradientUnits="userSpaceOnUse">
			<stop offset="0" stop-color="#7f8f9e"/>
			<stop offset=".2" stop-color="#8493a2"/>
			<stop offset=".4" stop-color="#92a0ad"/>
			<stop offset=".6" stop-color="#aab5bf"/>
			<stop offset=".9" stop-color="#cbd1d7"/>
			<stop offset="1" stop-color="#dee2e6"/>
		</linearGradient>
		<linearGradient id="g21" x1="72.7" y1="15" x2="79.3" y2="15" gradientUnits="userSpaceOnUse">
			<stop offset="0" stop-color="#7f8f9e"/>
			<stop offset=".2" stop-color="#8493a2"/>
			<stop offset=".4" stop-color="#92a0ad"/>
			<stop offset=".6" stop-color="#aab5bf"/>
			<stop offset=".9" stop-color="#cbd1d7"/>
			<stop offset="1" stop-color="#dee2e6"/>
		</linearGradient>
		<linearGradient id="g22" x1="74.4" y1="16" x2="81" y2="16" gradientUnits="userSpaceOnUse">
			<stop offset="0" stop-color="#7f8f9e"/>
			<stop offset=".2" stop-color="#8493a2"/>
			<stop offset=".4" stop-color="#92a0ad"/>
			<stop offset=".6" stop-color="#aab5bf"/>
			<stop offset=".9" stop-color="#cbd1d7"/>
			<stop offset="1" stop-color="#dee2e6"/>
		</linearGradient>
		<linearGradient id="g23" x1="76.1" y1="17" x2="82.7" y2="17" gradientUnits="userSpaceOnUse">
			<stop offset="0" stop-color="#7f8f9e"/>
			<stop offset=".2" stop-color="#8493a2"/>
			<stop offset=".4" stop-color="#92a0ad"/>
			<stop offset=".6" stop-color="#aab5bf"/>
			<stop offset=".9" stop-color="#cbd1d7"/>
			<stop offset="1" stop-color="#dee2e6"/>
		</linearGradient>
		<linearGradient id="g24" x1="77.8" y1="18" x2="84.4" y2="18" gradientUnits="userSpaceOnUse">
			<stop offset="0" stop-color="#7f8f9e"/>
			<stop offset=".2" stop-color="#8493a2"/>
			<stop offset=".4" stop-color="#92a0ad"/>
			<stop offset=".6" stop-color="#aab5bf"/>
			<stop offset=".9" stop-color="#cbd1d7"/>
			<stop offset="1" stop-color="#dee2e6"/>
		</linearGradient>
		<linearGradient id="g25" x1="82.8" y1="20.9" x2="89.4" y2="20.9" gradientUnits="userSpaceOnUse">
			<stop offset="0" stop-color="#7f8f9e"/>
			<stop offset=".2" stop-color="#8493a2"/>
			<stop offset=".4" stop-color="#92a0ad"/>
			<stop offset=".6" stop-color="#aab5bf"/>
			<stop offset=".9" stop-color="#cbd1d7"/>
			<stop offset="1" stop-color="#dee2e6"/>
		</linearGradient>
		<linearGradient id="g26" x1="84.5" y1="21.8" x2="91.1" y2="21.8" gradientUnits="userSpaceOnUse">
			<stop offset="0" stop-color="#7f8f9e"/>
			<stop offset=".2" stop-color="#8493a2"/>
			<stop offset=".4" stop-color="#92a0ad"/>
			<stop offset=".6" stop-color="#aab5bf"/>
			<stop offset=".9" stop-color="#cbd1d7"/>
			<stop offset="1" stop-color="#dee2e6"/>
		</linearGradient>
		<linearGradient id="g27" x1="86.2" y1="22.8" x2="92.8" y2="22.8" gradientUnits="userSpaceOnUse">
			<stop offset="0" stop-color="#7f8f9e"/>
			<stop offset=".2" stop-color="#8493a2"/>
			<stop offset=".4" stop-color="#92a0ad"/>
			<stop offset=".6" stop-color="#aab5bf"/>
			<stop offset=".9" stop-color="#cbd1d7"/>
			<stop offset="1" stop-color="#dee2e6"/>
		</linearGradient>
		<linearGradient id="g28" x1="87.9" y1="23.8" x2="94.5" y2="23.8" gradientUnits="userSpaceOnUse">
			<stop offset="0" stop-color="#7f8f9e"/>
			<stop offset=".2" stop-color="#8493a2"/>
			<stop offset=".4" stop-color="#92a0ad"/>
			<stop offset=".6" stop-color="#aab5bf"/>
			<stop offset=".9" stop-color="#cbd1d7"/>
			<stop offset="1" stop-color="#dee2e6"/>
		</linearGradient>
		<linearGradient id="g29" x1="71.9" y1="66.4" x2="63.4" y2="48.6" gradientUnits="userSpaceOnUse">
			<stop offset=".1" stop-color="#f96e1e"/>
			<stop offset="1" stop-color="#f96e1e"/>
		</linearGradient>
		<linearGradient id="g30" x1="63.4" y1="49" x2="61" y2="45.3" gradientUnits="userSpaceOnUse">
			<stop offset=".1" stop-color="#f96e1e"/>
			<stop offset="1" stop-color="#f96e1e"/>
		</linearGradient>
		<linearGradient id="g31" x1="73.8" y1="62.3" x2="70.4" y2="55.1" gradientUnits="userSpaceOnUse">
			<stop offset=".1" stop-color="#f96e1e"/>
			<stop offset="1" stop-color="#f96e1e"/>
		</linearGradient>
		<linearGradient id="g32" x1="69.9" y1="96.9" x2="41.2" y2="96.9" gradientUnits="userSpaceOnUse">
			<stop offset=".1" stop-color="#f96e1e"/>
			<stop offset="1" stop-color="#f96e1e"/>
		</linearGradient>
		<linearGradient id="g33" x1="69.2" y1="97" x2="41.9" y2="97" gradientUnits="userSpaceOnUse">
			<stop offset=".1" stop-color="#f96e1e"/>
			<stop offset="1" stop-color="#f96e1e"/>
		</linearGradient>
		<linearGradient id="g34" x1="64.7" y1="93.5" x2="36" y2="93.5" gradientUnits="userSpaceOnUse">
			<stop offset=".1" stop-color="#f96e1e"/>
			<stop offset="1" stop-color="#f96e1e"/>
		</linearGradient>
		<linearGradient id="g35" x1="63.9" y1="93.6" x2="36.7" y2="93.6" gradientUnits="userSpaceOnUse">
			<stop offset=".1" stop-color="#f96e1e"/>
			<stop offset="1" stop-color="#f96e1e"/>
		</linearGradient>
		<linearGradient id="g36" x1="4.2" y1="113" x2="52.9" y2="113" gradientUnits="userSpaceOnUse">
			<stop offset="0" stop-color="#9aa7d5"/>
			<stop offset=".1" stop-color="#9eaad7"/>
			<stop offset=".3" stop-color="#aab5db"/>
			<stop offset=".4" stop-color="#bdc6e3"/>
			<stop offset=".5" stop-color="#d4daed"/>
			<stop offset=".5" stop-color="#ced5eb"/>
			<stop offset=".8" stop-color="#a8b4db"/>
			<stop offset="1" stop-color="#9aa7d5"/>
		</linearGradient>
		<linearGradient id="g37" x1="14.2" y1="109" x2="41.5" y2="109" gradientUnits="userSpaceOnUse">
			<stop offset="0" stop-color="#f96e1e"/>
			<stop offset=".9" stop-color="#f96e1e"/>
		</linearGradient>
		<linearGradient id="g38" x1="14.4" y1="109.1" x2="41.4" y2="109.1" gradientUnits="userSpaceOnUse">
			<stop offset=".1" stop-color="#4ea0d8"/>
			<stop offset="1" stop-color="#68bdea"/>
		</linearGradient>
		<linearGradient id="g39" x1="14.4" y1="108.5" x2="41.4" y2="108.5" gradientUnits="userSpaceOnUse">
			<stop offset=".1" stop-color="#4ea0d8"/>
			<stop offset="1" stop-color="#68bdea"/>
		</linearGradient>
		<linearGradient id="g40" x1="14.4" y1="107.9" x2="41.4" y2="107.9" gradientUnits="userSpaceOnUse">
			<stop offset=".1" stop-color="#4ea0d8"/>
			<stop offset="1" stop-color="#68bdea"/>
		</linearGradient>
		<linearGradient id="g41" x1="14.4" y1="107.4" x2="41.4" y2="107.4" gradientUnits="userSpaceOnUse">
			<stop offset=".1" stop-color="#4ea0d8"/>
			<stop offset="1" stop-color="#68bdea"/>
		</linearGradient>
		<linearGradient id="g42" x1="14.4" y1="106.8" x2="41.4" y2="106.8" gradientUnits="userSpaceOnUse">
			<stop offset=".1" stop-color="#4ea0d8"/>
			<stop offset="1" stop-color="#68bdea"/>
		</linearGradient>
		<linearGradient id="g43" x1="14.4" y1="106.2" x2="41.4" y2="106.2" gradientUnits="userSpaceOnUse">
			<stop offset=".1" stop-color="#4ea0d8"/>
			<stop offset="1" stop-color="#68bdea"/>
		</linearGradient>
		<linearGradient id="g44" x1="14.4" y1="105.7" x2="41.4" y2="105.7" gradientUnits="userSpaceOnUse">
			<stop offset=".1" stop-color="#4ea0d8"/>
			<stop offset="1" stop-color="#68bdea"/>
		</linearGradient>
		<linearGradient id="g45" x1="14.4" y1="105.1" x2="41.4" y2="105.1" gradientUnits="userSpaceOnUse">
			<stop offset=".1" stop-color="#4ea0d8"/>
			<stop offset="1" stop-color="#68bdea"/>
		</linearGradient>
		<linearGradient id="g46" x1="14.4" y1="104.5" x2="41.4" y2="104.5" gradientUnits="userSpaceOnUse">
			<stop offset=".1" stop-color="#4ea0d8"/>
			<stop offset="1" stop-color="#68bdea"/>
		</linearGradient>
		<linearGradient id="g47" x1="14.4" y1="104" x2="41.4" y2="104" gradientUnits="userSpaceOnUse">
			<stop offset=".1" stop-color="#4ea0d8"/>
			<stop offset="1" stop-color="#68bdea"/>
		</linearGradient>
		<linearGradient id="g48" x1="14.4" y1="103.4" x2="41.4" y2="103.4" gradientUnits="userSpaceOnUse">
			<stop offset=".1" stop-color="#4ea0d8"/>
			<stop offset="1" stop-color="#68bdea"/>
		</linearGradient>
		<linearGradient id="g49" x1="14.4" y1="102.8" x2="41.4" y2="102.8" gradientUnits="userSpaceOnUse">
			<stop offset=".1" stop-color="#4ea0d8"/>
			<stop offset="1" stop-color="#68bdea"/>
		</linearGradient>
		<linearGradient id="g50" x1="14.4" y1="102.3" x2="41.4" y2="102.3" gradientUnits="userSpaceOnUse">
			<stop offset=".1" stop-color="#4ea0d8"/>
			<stop offset="1" stop-color="#68bdea"/>
		</linearGradient>
		<linearGradient id="g51" x1="14.4" y1="101.7" x2="41.4" y2="101.7" gradientUnits="userSpaceOnUse">
			<stop offset=".1" stop-color="#4ea0d8"/>
			<stop offset="1" stop-color="#68bdea"/>
		</linearGradient>
		<linearGradient id="g52" x1="14.4" y1="101.2" x2="41.4" y2="101.2" gradientUnits="userSpaceOnUse">
			<stop offset=".1" stop-color="#4ea0d8"/>
			<stop offset="1" stop-color="#68bdea"/>
		</linearGradient>
		<linearGradient id="g53" x1="14.4" y1="100.6" x2="41.4" y2="100.6" gradientUnits="userSpaceOnUse">
			<stop offset=".1" stop-color="#4ea0d8"/>
			<stop offset="1" stop-color="#68bdea"/>
		</linearGradient>
		<linearGradient id="g54" x1="14.4" y1="100" x2="41.4" y2="100" gradientUnits="userSpaceOnUse">
			<stop offset=".1" stop-color="#4ea0d8"/>
			<stop offset="1" stop-color="#68bdea"/>
		</linearGradient>
		<linearGradient id="g55" x1="14.4" y1="99.4" x2="41.4" y2="99.4" gradientUnits="userSpaceOnUse">
			<stop offset=".1" stop-color="#4ea0d8"/>
			<stop offset="1" stop-color="#68bdea"/>
		</linearGradient>
		<linearGradient id="g56" x1="14.4" y1="98.9" x2="41.4" y2="98.9" gradientUnits="userSpaceOnUse">
			<stop offset=".1" stop-color="#4ea0d8"/>
			<stop offset="1" stop-color="#68bdea"/>
		</linearGradient>
		<linearGradient id="g57" x1="14.4" y1="98.4" x2="41.4" y2="98.4" gradientUnits="userSpaceOnUse">
			<stop offset=".1" stop-color="#4ea0d8"/>
			<stop offset="1" stop-color="#68bdea"/>
		</linearGradient>
		<linearGradient id="g58" x1="14.4" y1="97.8" x2="41.4" y2="97.8" gradientUnits="userSpaceOnUse">
			<stop offset=".1" stop-color="#4ea0d8"/>
			<stop offset="1" stop-color="#68bdea"/>
		</linearGradient>
		<linearGradient id="g59" x1="14.4" y1="97.2" x2="41.4" y2="97.2" gradientUnits="userSpaceOnUse">
			<stop offset=".1" stop-color="#4ea0d8"/>
			<stop offset="1" stop-color="#68bdea"/>
		</linearGradient>
		<linearGradient id="g60" x1="14.4" y1="96.6" x2="41.4" y2="96.6" gradientUnits="userSpaceOnUse">
			<stop offset=".1" stop-color="#4ea0d8"/>
			<stop offset="1" stop-color="#68bdea"/>
		</linearGradient>
		<linearGradient id="g61" x1="14.4" y1="96.1" x2="41.4" y2="96.1" gradientUnits="userSpaceOnUse">
			<stop offset=".1" stop-color="#4ea0d8"/>
			<stop offset="1" stop-color="#68bdea"/>
		</linearGradient>
		<linearGradient id="g62" x1="14.4" y1="95.5" x2="41.4" y2="95.5" gradientUnits="userSpaceOnUse">
			<stop offset=".1" stop-color="#4ea0d8"/>
			<stop offset="1" stop-color="#68bdea"/>
		</linearGradient>
		<linearGradient id="g63" x1="14.4" y1="94.9" x2="41.4" y2="94.9" gradientUnits="userSpaceOnUse">
			<stop offset=".1" stop-color="#4ea0d8"/>
			<stop offset="1" stop-color="#68bdea"/>
		</linearGradient>
		<linearGradient id="g64" x1="14.4" y1="94.4" x2="41.4" y2="94.4" gradientUnits="userSpaceOnUse">
			<stop offset=".1" stop-color="#4ea0d8"/>
			<stop offset="1" stop-color="#68bdea"/>
		</linearGradient>
		<linearGradient id="g65" x1="14.4" y1="93.8" x2="41.4" y2="93.8" gradientUnits="userSpaceOnUse">
			<stop offset=".1" stop-color="#4ea0d8"/>
			<stop offset="1" stop-color="#68bdea"/>
		</linearGradient>
		<linearGradient id="g66" x1="14.4" y1="93.2" x2="41.4" y2="93.2" gradientUnits="userSpaceOnUse">
			<stop offset=".1" stop-color="#4ea0d8"/>
			<stop offset="1" stop-color="#68bdea"/>
		</linearGradient>
		<linearGradient id="g67" x1="14.4" y1="92.7" x2="41.4" y2="92.7" gradientUnits="userSpaceOnUse">
			<stop offset=".1" stop-color="#4ea0d8"/>
			<stop offset="1" stop-color="#68bdea"/>
		</linearGradient>
		<linearGradient id="g68" x1="14.4" y1="92.1" x2="41.4" y2="92.1" gradientUnits="userSpaceOnUse">
			<stop offset=".1" stop-color="#4ea0d8"/>
			<stop offset="1" stop-color="#68bdea"/>
		</linearGradient>
		<linearGradient id="g69" x1="14.4" y1="91.5" x2="41.4" y2="91.5" gradientUnits="userSpaceOnUse">
			<stop offset=".1" stop-color="#4ea0d8"/>
			<stop offset="1" stop-color="#68bdea"/>
		</linearGradient>
		<linearGradient id="g70" x1="14.4" y1="91" x2="41.4" y2="91" gradientUnits="userSpaceOnUse">
			<stop offset=".1" stop-color="#4ea0d8"/>
			<stop offset="1" stop-color="#68bdea"/>
		</linearGradient>
		<linearGradient id="g71" x1="14.4" y1="90.4" x2="41.4" y2="90.4" gradientUnits="userSpaceOnUse">
			<stop offset=".1" stop-color="#4ea0d8"/>
			<stop offset="1" stop-color="#68bdea"/>
		</linearGradient>
		<linearGradient id="g72" x1="14.4" y1="89.8" x2="41.4" y2="89.8" gradientUnits="userSpaceOnUse">
			<stop offset=".1" stop-color="#4ea0d8"/>
			<stop offset="1" stop-color="#68bdea"/>
		</linearGradient>
		<linearGradient id="g73" x1="14.4" y1="89.3" x2="41.4" y2="89.3" gradientUnits="userSpaceOnUse">
			<stop offset=".1" stop-color="#4ea0d8"/>
			<stop offset="1" stop-color="#68bdea"/>
		</linearGradient>
		<linearGradient id="g74" x1="14.4" y1="88.7" x2="41.4" y2="88.7" gradientUnits="userSpaceOnUse">
			<stop offset=".1" stop-color="#4ea0d8"/>
			<stop offset="1" stop-color="#68bdea"/>
		</linearGradient>
		<linearGradient id="g75" x1="14.4" y1="88.1" x2="41.4" y2="88.1" gradientUnits="userSpaceOnUse">
			<stop offset=".1" stop-color="#4ea0d8"/>
			<stop offset="1" stop-color="#68bdea"/>
		</linearGradient>
		<linearGradient id="g76" x1="14.4" y1="87.6" x2="41.4" y2="87.6" gradientUnits="userSpaceOnUse">
			<stop offset=".1" stop-color="#4ea0d8"/>
			<stop offset="1" stop-color="#68bdea"/>
		</linearGradient>
		<linearGradient id="g77" x1="14.4" y1="87" x2="41.4" y2="87" gradientUnits="userSpaceOnUse">
			<stop offset=".1" stop-color="#4ea0d8"/>
			<stop offset="1" stop-color="#68bdea"/>
		</linearGradient>
		<linearGradient id="g78" x1="14.4" y1="86.4" x2="41.4" y2="86.4" gradientUnits="userSpaceOnUse">
			<stop offset=".1" stop-color="#4ea0d8"/>
			<stop offset="1" stop-color="#68bdea"/>
		</linearGradient>
		<linearGradient id="g79" x1="14.4" y1="85.9" x2="41.4" y2="85.9" gradientUnits="userSpaceOnUse">
			<stop offset=".1" stop-color="#4ea0d8"/>
			<stop offset="1" stop-color="#68bdea"/>
		</linearGradient>
		<linearGradient id="g80" x1="14.4" y1="85.3" x2="41.4" y2="85.3" gradientUnits="userSpaceOnUse">
			<stop offset=".1" stop-color="#4ea0d8"/>
			<stop offset="1" stop-color="#68bdea"/>
		</linearGradient>
		<linearGradient id="g81" x1="14.4" y1="84.7" x2="41.4" y2="84.7" gradientUnits="userSpaceOnUse">
			<stop offset=".1" stop-color="#4ea0d8"/>
			<stop offset="1" stop-color="#68bdea"/>
		</linearGradient>
		<linearGradient id="g82" x1="14.4" y1="84.2" x2="41.4" y2="84.2" gradientUnits="userSpaceOnUse">
			<stop offset=".1" stop-color="#4ea0d8"/>
			<stop offset="1" stop-color="#68bdea"/>
		</linearGradient>
		<linearGradient id="g83" x1="14.4" y1="83.6" x2="41.4" y2="83.6" gradientUnits="userSpaceOnUse">
			<stop offset=".1" stop-color="#4ea0d8"/>
			<stop offset="1" stop-color="#68bdea"/>
		</linearGradient>
		<linearGradient id="g84" x1="14.4" y1="83.1" x2="41.4" y2="83.1" gradientUnits="userSpaceOnUse">
			<stop offset=".1" stop-color="#4ea0d8"/>
			<stop offset="1" stop-color="#68bdea"/>
		</linearGradient>
		<linearGradient id="g85" x1="14.4" y1="82.5" x2="41.4" y2="82.5" gradientUnits="userSpaceOnUse">
			<stop offset=".1" stop-color="#4ea0d8"/>
			<stop offset="1" stop-color="#68bdea"/>
		</linearGradient>
		<linearGradient id="g86" x1="14.4" y1="81.9" x2="41.4" y2="81.9" gradientUnits="userSpaceOnUse">
			<stop offset=".1" stop-color="#4ea0d8"/>
			<stop offset="1" stop-color="#68bdea"/>
		</linearGradient>
		<linearGradient id="g87" x1="14.4" y1="81.3" x2="41.4" y2="81.3" gradientUnits="userSpaceOnUse">
			<stop offset=".1" stop-color="#4ea0d8"/>
			<stop offset="1" stop-color="#68bdea"/>
		</linearGradient>
		<linearGradient id="g88" x1="14.4" y1="80.8" x2="41.4" y2="80.8" gradientUnits="userSpaceOnUse">
			<stop offset=".1" stop-color="#4ea0d8"/>
			<stop offset="1" stop-color="#68bdea"/>
		</linearGradient>
	</defs>
	<style>
		.s0 { fill: #000000 } 
		.s1 { fill: url(#g1) } 
		.s2 { fill: #363650 } 
		.s3 { fill: #c0c7cf } 
		.s4 { fill: url(#g2) } 
		.s5 { fill: url(#g3) } 
		.s6 { fill: #5d6873 } 
		.s7 { fill: url(#g4) } 
		.s8 { fill: url(#g5) } 
		.s9 { fill: url(#g6) } 
		.s10 { fill: url(#g7) } 
		.s11 { fill: url(#g8) } 
		.s12 { fill: url(#g9) } 
		.s13 { opacity: .4;fill: #363650 } 
		.s14 { opacity: .1;fill: #f0f0f0 } 
		.s15 { fill: #f2f3f4 } 
		.s16 { fill: url(#g10) } 
		.s17 { fill: url(#g11) } 
		.s18 { fill: url(#g12) } 
		.s19 { fill: url(#g13) } 
		.s20 { fill: #5d639e } 
		.s21 { fill: #49486b } 
		.s22 { fill: #80909f } 
		.s23 { fill: #f96e1e } 
		.s24 { fill: url(#g14) } 
		.s25 { fill: url(#g15) } 
		.s26 { fill: #9198db } 
		.s27 { fill: #adb1f2 } 
		.s28 { fill: #24126a } 
		.s29 { fill: #dee2e6 } 
		.s30 { fill: url(#g16) } 
		.s31 { fill: url(#g17) } 
		.s32 { fill: url(#g18) } 
		.s33 { fill: url(#g19) } 
		.s34 { fill: url(#g20) } 
		.s35 { fill: url(#g21) } 
		.s36 { fill: url(#g22) } 
		.s37 { fill: url(#g23) } 
		.s38 { fill: url(#g24) } 
		.s39 { fill: url(#g25) } 
		.s40 { fill: url(#g26) } 
		.s41 { fill: url(#g27) } 
		.s42 { fill: url(#g28) } 
		.s43 { fill: url(#g29) } 
		.s44 { fill: url(#g30) } 
		.s45 { fill: url(#g31) } 
		.s46 { fill: #f96e1e } 
		.s47 { fill: #48486a } 
		.s48 { fill: #ffffff } 
		.s49 { fill: #f2b1b5 } 
		.s50 { fill: #d4daed } 
		.s51 { opacity: .3;fill: #49486b } 
		.s52 { opacity: .3;fill: #231f20 } 
		.s53 { opacity: .3;fill: url(#g32) } 
		.s54 { opacity: .6;fill: url(#g33) } 
		.s55 { opacity: .3;fill: url(#g34) } 
		.s56 { opacity: .6;fill: url(#g35) } 
		.s57 { fill: none } 
		.s58 { opacity: 0;fill: #f96e1e } 
		.s59 { opacity: .1;fill: #ebeaed } 
		.s60 { opacity: .1;fill: #f96e1e } 
		.s61 { opacity: .2;fill: #f96e1e } 
		.s62 { opacity: .2;fill: #cbc8d2 } 
		.s63 { opacity: .2;fill: #c7c4cf } 
		.s64 { opacity: .2;fill: #c3c0cb } 
		.s65 { opacity: .3;fill: #bfbbc8 } 
		.s66 { opacity: .3;fill: #bbb7c5 } 
		.s67 { opacity: .3;fill: #b7b3c2 } 
		.s68 { opacity: .3;fill: #b4afbe } 
		.s69 { opacity: .3;fill: #b0abbb } 
		.s70 { opacity: .4;fill: #aca8b8 } 
		.s71 { opacity: .4;fill: #a9a4b5 } 
		.s72 { opacity: .4;fill: #a5a0b2 } 
		.s73 { opacity: .4;fill: #a29caf } 
		.s74 { opacity: .4;fill: #9e99ac } 
		.s75 { opacity: .5;fill: #9a95a9 } 
		.s76 { opacity: .5;fill: #9792a7 } 
		.s77 { opacity: .5;fill: #948ea4 } 
		.s78 { opacity: .5;fill: #908ba1 } 
		.s79 { opacity: .5;fill: #8d889e } 
		.s80 { opacity: .5;fill: #8a849c } 
		.s81 { opacity: .6;fill: #878199 } 
		.s82 { opacity: .6;fill: #847e97 } 
		.s83 { opacity: .6;fill: #817b94 } 
		.s84 { opacity: .6;fill: #7e7892 } 
		.s85 { opacity: .6;fill: #7b758f } 
		.s86 { opacity: .7;fill: #78738d } 
		.s87 { opacity: .7;fill: #75708b } 
		.s88 { opacity: .7;fill: #726d89 } 
		.s89 { opacity: .7;fill: #6f6a86 } 
		.s90 { opacity: .7;fill: #6d6884 } 
		.s91 { opacity: .8;fill: #6a6582 } 
		.s92 { opacity: .8;fill: #676380 } 
		.s93 { opacity: .8;fill: #64607e } 
		.s94 { opacity: .8;fill: #615e7c } 
		.s95 { opacity: .8;fill: #5f5b7a } 
		.s96 { opacity: .9;fill: #5c5978 } 
		.s97 { opacity: .9;fill: #595676 } 
		.s98 { opacity: .9;fill: #565474 } 
		.s99 { opacity: .9;fill: #545272 } 
		.s100 { opacity: .9;fill: #514f70 } 
		.s101 { opacity: 1;fill: #4e4d6e } 
		.s102 { opacity: 1;fill: #4b4b6c } 
		.s103 { fill: url(#g36) } 
		.s104 { fill: #ebeef6 } 
		.s105 { fill: url(#g37) } 
		.s106 { opacity: .3;fill: #f96e1e } 
		.s107 { fill: url(#g38) } 
		.s108 { opacity: 1;fill: url(#g39) } 
		.s109 { opacity: 1;fill: url(#g40) } 
		.s110 { opacity: .9;fill: url(#g41) } 
		.s111 { opacity: .9;fill: url(#g42) } 
		.s112 { opacity: .9;fill: url(#g43) } 
		.s113 { opacity: .9;fill: url(#g44) } 
		.s114 { opacity: .9;fill: url(#g45) } 
		.s115 { opacity: .8;fill: url(#g46) } 
		.s116 { opacity: .8;fill: url(#g47) } 
		.s117 { opacity: .8;fill: url(#g48) } 
		.s118 { opacity: .8;fill: url(#g49) } 
		.s119 { opacity: .8;fill: url(#g50) } 
		.s120 { opacity: .7;fill: url(#g51) } 
		.s121 { opacity: .7;fill: url(#g52) } 
		.s122 { opacity: .7;fill: url(#g53) } 
		.s123 { opacity: .7;fill: url(#g54) } 
		.s124 { opacity: .7;fill: url(#g55) } 
		.s125 { opacity: .6;fill: url(#g56) } 
		.s126 { opacity: .6;fill: url(#g57) } 
		.s127 { opacity: .6;fill: url(#g58) } 
		.s128 { opacity: .6;fill: url(#g59) } 
		.s129 { opacity: .6;fill: url(#g60) } 
		.s130 { opacity: .5;fill: url(#g61) } 
		.s131 { opacity: .5;fill: url(#g62) } 
		.s132 { opacity: .5;fill: url(#g63) } 
		.s133 { opacity: .5;fill: url(#g64) } 
		.s134 { opacity: .5;fill: url(#g65) } 
		.s135 { opacity: .5;fill: url(#g66) } 
		.s136 { opacity: .4;fill: url(#g67) } 
		.s137 { opacity: .4;fill: url(#g68) } 
		.s138 { opacity: .4;fill: url(#g69) } 
		.s139 { opacity: .4;fill: url(#g70) } 
		.s140 { opacity: .4;fill: url(#g71) } 
		.s141 { opacity: .3;fill: url(#g72) } 
		.s142 { opacity: .3;fill: url(#g73) } 
		.s143 { opacity: .3;fill: url(#g74) } 
		.s144 { opacity: .3;fill: url(#g75) } 
		.s145 { opacity: .3;fill: url(#g76) } 
		.s146 { opacity: .2;fill: url(#g77) } 
		.s147 { opacity: .2;fill: url(#g78) } 
		.s148 { opacity: .2;fill: url(#g79) } 
		.s149 { opacity: .2;fill: url(#g80) } 
		.s150 { opacity: .2;fill: url(#g81) } 
		.s151 { opacity: .1;fill: url(#g82) } 
		.s152 { opacity: .1;fill: url(#g83) } 
		.s153 { opacity: .1;fill: url(#g84) } 
		.s154 { opacity: .1;fill: url(#g85) } 
		.s155 { opacity: .1;fill: url(#g86) } 
		.s156 { opacity: 0;fill: url(#g87) } 
		.s157 { opacity: 0;fill: url(#g88) } 
	</style>
	<path id="Layer" class="s0" d="m85.4 104.6c0 0-0.1-0.1-0.2-0.1l-37.5-21.7c-0.2 0-0.3-0.2-0.3-0.3v-68.8l41.2 16 1 2.3h-4.1z"/>
	<path id="Layer" class="s1" d="m109.8 91c-0.1 0.2-0.2 0.4-0.4 0.5l-22.6 13c-0.3 0.1-0.5 0.2-0.8 0.2v-69l23.7-13.6z"/>
	<path id="Layer" class="s2" d="m86.9 15l-0.5 62.2v16.7l0.3 10.5-0.2 0.1c-0.2 0.1-0.2 0.3-0.5 0.3-0.2 0-0.5-0.1-0.7-0.2l-1-0.6v-89z"/>
	<path id="Layer" class="s3" d="m86.9 104.4l-0.2 0.1-0.2 0.1c-0.2 0-0.3 0.1-0.4 0.1h-0.2v-69l1-0.6v58.8z"/>
	<path id="Layer" class="s4" d="m82.6 37.8l-0.6 0.3 0.2-0.3-0.2-0.1c-0.5-0.3-0.8-0.8-0.8-1.4v-0.2h-0.4l0.6-0.3c0.2 0 0.4 0 0.6 0.1 0.5 0.3 0.8 0.8 0.8 1.4 0.1 0.2 0 0.4-0.2 0.5z"/>
	<path id="Layer" class="s5" d="m82.3 37.6c0 0.5-0.4 0.7-0.8 0.5-0.5-0.3-0.8-0.8-0.8-1.4 0-0.5 0.4-0.7 0.8-0.5 0.4 0.3 0.7 0.8 0.8 1.4z"/>
	<path id="Layer" class="s6" d="m81.9 37.4c0 0.3-0.2 0.4-0.5 0.3-0.3-0.2-0.5-0.5-0.5-0.8 0-0.3 0.2-0.4 0.5-0.3 0.3 0.2 0.5 0.5 0.5 0.8z"/>
	<path id="Layer" class="s7" d="m50.9 19.9l-0.6 0.3 0.2-0.3-0.2-0.1c-0.5-0.4-0.8-0.9-0.8-1.5v-0.2h-0.4l0.6-0.3c0.2 0 0.4 0 0.6 0.1 0.5 0.3 0.8 0.8 0.8 1.4 0 0.2-0.1 0.4-0.2 0.6z"/>
	<path id="Layer" class="s8" d="m50.5 19.6c0 0.5-0.4 0.7-0.8 0.5-0.5-0.3-0.8-0.8-0.8-1.4 0-0.5 0.4-0.7 0.8-0.5 0.5 0.3 0.8 0.8 0.8 1.4z"/>
	<path id="Layer" class="s6" d="m50.2 19.4c0 0.3-0.2 0.4-0.5 0.3-0.3-0.2-0.5-0.5-0.5-0.8 0-0.3 0.2-0.4 0.5-0.3 0.3 0.2 0.5 0.5 0.5 0.8z"/>
	<path id="Layer" class="s9" d="m83 101.1l-0.6 0.3 0.2-0.3-0.2-0.1c-0.5-0.3-0.8-0.8-0.8-1.4v-0.2h-0.4l0.6-0.3c0.2-0.1 0.4-0.1 0.6 0.1 0.5 0.3 0.8 0.8 0.8 1.4 0 0.2-0.1 0.4-0.2 0.5z"/>
	<path id="Layer" class="s10" d="m82.6 100.9c0 0.5-0.4 0.7-0.8 0.5-0.5-0.3-0.8-0.8-0.8-1.4 0-0.5 0.4-0.7 0.8-0.5 0.4 0.3 0.7 0.8 0.8 1.4z"/>
	<path id="Layer" class="s6" d="m82.2 100.8c0 0.3-0.2 0.4-0.5 0.3-0.3-0.2-0.5-0.5-0.5-0.8 0-0.3 0.2-0.4 0.5-0.3 0.3 0.1 0.5 0.4 0.5 0.8z"/>
	<path id="Layer" class="s11" d="m50.8 82.4l-0.6 0.3 0.2-0.3-0.2-0.1c-0.5-0.3-0.8-0.8-0.8-1.4v-0.2h-0.4l0.6-0.3c0.2 0 0.4 0 0.6 0.1 0.5 0.3 0.8 0.8 0.8 1.4 0 0.2-0.1 0.4-0.2 0.5z"/>
	<path id="Layer" class="s12" d="m50.4 82.2c0 0.5-0.4 0.7-0.8 0.5-0.5-0.3-0.8-0.8-0.8-1.4 0-0.5 0.4-0.7 0.8-0.5 0.5 0.3 0.8 0.8 0.8 1.4z"/>
	<path id="Layer" class="s6" d="m50.1 82c0 0.3-0.2 0.4-0.5 0.3-0.3-0.2-0.5-0.5-0.5-0.8 0-0.3 0.2-0.4 0.5-0.3 0.3 0.2 0.5 0.5 0.5 0.8z"/>
	<path id="Layer" class="s13" d="m49.3 17.5l33.1 19.1v64.3l-33.1-19.1z"/>
	<path id="Layer" class="s14" d="m47.4 13.7l36.8 21.5v12.6l-36.8 24.7z"/>
	<path id="Layer" class="s15" d="m85.2 35.7l-37.5-21.6c-0.4-0.2-0.3-0.6 0.1-0.9l22.6-13c0.5-0.3 1-0.3 1.5-0.1l37.5 21.6c0.4 0.2 0.3 0.6-0.1 0.9l-22.6 13c-0.4 0.3-1 0.3-1.5 0.1z"/>
	<path id="Layer" class="s16" d="m102.8 21.7l-17.2 11.7-33.9-19.6v-1.3l1.8 0.3 18-10.4z"/>
	<path id="Layer" class="s17" d="m105.4 20.7v1.3l-19.8 11.4v-1.3z"/>
	<path id="Layer" class="s15" d="m85.6 32.1l-33.9-19.6 19.8-11.4 33.9 19.6z"/>
	<path id="Layer" class="s18" d="m106.2 45.8v22.8l-16.7 9.6v-1l15.7-9.1v-21.8z"/>
	<path id="Layer" class="s19" d="m115.8 75.4c0 0 0 0.1-0.1 0.1l-15.8 9.1q-0.3 0.1-0.6 0l-9.4-5.4c-0.1 0-0.1-0.1-0.1-0.1l-0.3-0.8 0.8 0.4 15.4-8.9q0.3-0.1 0.6 0l9 5.2 0.9-0.5z"/>
	<path id="Layer" class="s15" d="m116 74.6l-16.2 9.4q-0.3 0.1-0.6 0l-9.7-5.6c-0.2-0.1-0.1-0.2 0-0.3l16.2-9.3q0.3-0.1 0.6 0l9.7 5.6c0.2 0 0.2 0.1 0 0.2z"/>
	<path id="Layer" class="s20" d="m94.9 81.9v-0.2l0.6 0.4v0.2l-0.6-0.4q0 0.1 0 0zm1 0.6v-0.2l0.6 0.4v0.2z"/>
	<path id="Layer" class="s3" d="m92.1 77.9l13.5-7.8q0.2-0.1 0.3 0l4.8 2.8c0 0 0.1 0.1 0 0.1l-13.5 7.8q-0.2 0.1-0.3 0l-4.8-2.9q-0.1 0.1 0 0c-0.1 0 0 0 0 0z"/>
	<path id="Layer" class="s20" d="m92.1 78.1c-0.1-0.1-0.1-0.2 0 0l13.4-7.9q0.1-0.1 0.3 0l4.8 2.8c0.1 0 0 0.1 0 0.1l-4.8-2.8q-0.2-0.1-0.3 0l-13.4 7.8c0 0-0.1-0.1 0 0z"/>
	<path id="Layer" class="s21" d="m106.2 70.8l-11.7 6.8-0.5-0.3 11.7-6.8zm1.3 0.8l-11 6.3-0.5-0.3 11-6.3zm0.8 0.4l-12.9 7.4-0.5-0.3 12.9-7.4zm0.8 0.5l-12.9 7.5-0.5-0.3 12.9-7.5zm0.9 0.5l-12.9 7.5-0.5-0.3 12.9-7.4zm-16.2 5l-0.5 0.3-0.5-0.3 0.5-0.3zm1.8 0.4l-1 0.6-0.6-0.3 1.1-0.6z"/>
	<path id="Layer" class="s22" d="m103.1 78.2c-0.2 0-0.1-0.1 0 0l3.6-2.2c0.2-0.1 0.3-0.1 0.5 0l2.5 1.4c0.1 0 0.1 0.1 0.1 0.2l-0.1-0.1-2.5-1.4c-0.2-0.1-0.3-0.1-0.5 0l-3.6 2.1q-0.1 0 0 0z"/>
	<path id="Layer" class="s23" d="m105.2 68.1l-15.7 9.1v-21.8l15.7-9.1z"/>
	<path id="Layer" class="s23" d="m105.2 68.1l-15.7 9.1v-21.8l15.7-9.1z"/>
	<path id="Layer" class="s23" d="m89.4 77.2v-20.8l14.9-8.6v20.9z"/>
	<g id="Layer" style="opacity: .1">
		<g id="Clip-Path" clip-path="url(#cp1)">
			<g id="Layer">
				<path id="Layer" class="s24" d="m105.9 68.7l-16.2 9.3q-0.3 0.1-0.6 0l-9.6-5.6c-0.2-0.1-0.1-0.2 0-0.3l16.2-9.3q0.3-0.1 0.6 0l9.6 5.6c0.1 0 0.1 0.2 0 0.3z"/>
				<path id="Layer" class="s25" d="m89.2 70.3l-2.5-1.4-0.1-0.1c0-0.1 0-0.2 0.1-0.2l3.6-2.1c0.2-0.1 0.3-0.1 0.5 0l2.5 1.4 0.1 0.1c0 0.1 0 0.2-0.1 0.2l-3.6 2.1c-0.2 0.1-0.4 0.1-0.5 0z"/>
				<path id="Layer" class="s26" d="m86.7 68.8c-0.1 0-0.1-0.1 0 0l3.6-2.2c0.2-0.1 0.3-0.1 0.5 0l2.5 1.4c0.1 0 0.1 0.1 0.1 0.2l-0.1-0.1-2.5-1.4c-0.2-0.1-0.3-0.1-0.5 0l-3.6 2.1c0 0-0.1 0 0 0z"/>
				<path id="Layer" class="s27" d="m85.1 73.6l13.4-7.7q0.1-0.1 0.3 0l4.8 2.8c0 0 0.1 0.1 0 0.1l-13.4 7.7q-0.2 0.1-0.3 0l-4.8-2.9c0 0.2-0.1 0.1 0 0z"/>
				<path id="Layer" class="s26" d="m85 73.7c-0.1 0 0-0.1 0-0.1l13.3-7.7q0.1-0.1 0.3 0l4.8 2.8c0.1 0 0 0.1 0 0.1l-4.7-2.7q-0.2-0.1-0.3 0l-13.3 7.7c0 0-0.1 0-0.1-0.1z"/>
				<path id="Layer" class="s28" d="m102.8 68.7l-11.7 6.7-0.5-0.3 11.7-6.7zm-1.2-0.7l-11.1 6.4-0.5-0.3 11.1-6.4zm-11.9 6.9l-1 0.6-0.5-0.3 1-0.6zm0.9 0.9l-0.7 0.4-0.5-0.3 0.7-0.4zm10.2-8.2l-13 7.5-0.5-0.3 13-7.5zm-0.7-0.5l-13 7.5-0.5-0.3 13-7.5zm-0.8-0.4l-13 7.5-0.5-0.3 13-7.5z"/>
			</g>
		</g>
	</g>
	<path id="Layer" class="s29" d="m93.8 58.1l-0.9 0.5v-0.6l0.9-0.5zm0 4.3l-0.9 0.5v-3.7l0.9-0.5zm0 2l-1 0.6v-1.5l0.9-0.5zm0 2.2l-0.9 0.5v-1.5l0.9-0.6zm1.4-7.2l-0.9 0.5v-1.5l0.9-0.5zm0 2.8l-0.9 0.5v-2.2l0.9-0.5zm0 2.5l-0.9 0.5v-1.8l0.9-0.5zm-1.4 4l-0.9 0.6v-1.5l0.9-0.5zm1.4-11.4l-0.9 0.5v-0.6l0.9-0.5z"/>
	<path id="Layer" class="s30" d="m94.5 70.3l-1.6 0.9v-0.6l1.6-0.9z"/>
	<path id="Layer" class="s6" d="m63.5 11.2l-0.6-0.3v-0.3l5.2-3 0.7 0.3-0.1 0.2z"/>
	<path id="Layer" class="s31" d="m63 10.9l-0.4-0.2 5.7-3.3 0.9 0.5-0.4 0.2-0.6-0.3z"/>
	<path id="Layer" class="s6" d="m65.2 12.1l-0.6-0.3v-0.3l5.2-3 0.7 0.3-0.1 0.2z"/>
	<path id="Layer" class="s32" d="m64.7 11.9l-0.4-0.2 5.7-3.3 0.9 0.5-0.4 0.2-0.6-0.3z"/>
	<path id="Layer" class="s6" d="m66.9 13.1l-0.6-0.3v-0.3l5.2-3 0.7 0.4-0.1 0.2z"/>
	<path id="Layer" class="s33" d="m66.4 12.8l-0.4-0.2 5.8-3.3 0.9 0.5-0.4 0.2-0.6-0.3z"/>
	<path id="Layer" class="s6" d="m68.6 14.1l-0.6-0.3 0.1-0.3 5.2-3 0.7 0.4-0.1 0.1z"/>
	<path id="Layer" class="s34" d="m68.2 13.8l-0.4-0.2 5.7-3.3 0.9 0.5-0.4 0.2-0.6-0.3z"/>
	<path id="Layer" class="s6" d="m73.6 17l-0.6-0.3v-0.3l5.2-3 0.7 0.3v0.3z"/>
	<path id="Layer" class="s35" d="m73.2 16.7l-0.4-0.2 5.7-3.3 0.9 0.5-0.4 0.2-0.6-0.3z"/>
	<path id="Layer" class="s6" d="m75.3 18l-0.6-0.3v-0.3l5.2-3 0.7 0.3-0.1 0.2z"/>
	<path id="Layer" class="s36" d="m74.9 17.7l-0.4-0.2 5.7-3.3 0.9 0.5-0.4 0.2-0.6-0.3z"/>
	<path id="Layer" class="s6" d="m77 19l-0.6-0.3 0.1-0.3 5.2-3 0.7 0.4-0.1 0.2z"/>
	<path id="Layer" class="s37" d="m76.6 18.7l-0.4-0.2 5.7-3.3 0.9 0.5-0.4 0.2-0.6-0.3z"/>
	<path id="Layer" class="s6" d="m78.7 20l-0.6-0.3 0.1-0.3 5.2-3 0.7 0.3-0.1 0.2z"/>
	<path id="Layer" class="s38" d="m78.3 19.7l-0.4-0.2 5.7-3.3 0.9 0.5-0.4 0.2-0.6-0.3z"/>
	<path id="Layer" class="s6" d="m83.7 22.9l-0.6-0.3v-0.3l5.2-3 0.7 0.3v0.2z"/>
	<path id="Layer" class="s39" d="m83.3 22.6l-0.4-0.2 5.7-3.3 0.9 0.5-0.4 0.2-0.6-0.3z"/>
	<path id="Layer" class="s6" d="m85.5 23.8l-0.6-0.3 0.1-0.3 5.2-3 0.7 0.3-0.1 0.2z"/>
	<path id="Layer" class="s40" d="m84.9 23.5l-0.4-0.2 5.7-3.3 1 0.6-0.4 0.2-0.6-0.3z"/>
	<path id="Layer" class="s6" d="m87.2 24.8l-0.6-0.3 0.1-0.3 5.2-3 0.7 0.4-0.1 0.2z"/>
	<path id="Layer" class="s41" d="m86.6 24.5l-0.4-0.2 5.7-3.3 1 0.5-0.4 0.2-0.6-0.3z"/>
	<path id="Layer" class="s6" d="m88.9 25.8l-0.6-0.3 0.1-0.3 5.2-3 0.7 0.3-0.1 0.2z"/>
	<path id="Layer" class="s42" d="m88.3 25.5l-0.4-0.2 5.7-3.3 1 0.5-0.4 0.2-0.6-0.3z"/>
	<g id="Layer" style="opacity: .8">
		<path id="Layer" class="s43" d="m58.9 46.1l-0.7-1 1.8-1.1c0.1-0.1 0.2-0.1 0.2-0.1 0.7-0.3 1.5-0.2 2.2 0.3 0.5 0.3 0.9 0.7 1.3 1.1l1.2-0.7c0.1-0.1 0.2-0.1 0.2-0.1 0.9-0.4 2-0.3 2.9 0.3 2.5 1.5 4.4 5.4 4.4 8.7 0 0.3 0 0.6-0.1 0.8 1.4 1.5 2.3 3.4 2.3 5.5 0.1 0.9-0.3 1.8-0.9 2.4-0.1 0.1-0.2 0.1-0.3 0.2l-1.8 1.1-1.6-2 0.1-0.3-10.2-5.9c-2-1.5-3.2-3.8-3.2-6.3 0-2 0.9-3 2.2-2.9z"/>
		<path id="Layer" class="s44" d="m62 46.8l-3.2-0.9-0.6-0.8 1.8-1.1c0 0 0.1-0.1 0.2-0.1 0.8-0.3 1.6-0.2 2.2 0.3 0.5 0.3 0.9 0.7 1.3 1.1z"/>
		<path id="Layer" class="s45" d="m71.7 63.1l-1.1-1.2-0.3-6.6 2.1-1.2c1.4 1.5 2.3 3.4 2.3 5.5 0.1 0.9-0.2 1.8-0.9 2.4-0.1 0.1-0.2 0.2-0.3 0.2z"/>
		<path id="Layer" class="s46" d="m56.9 47.3c0.3-2.1 1.7-3 3.5-2 0.6 0.4 1.2 0.9 1.6 1.5 0.8-1.5 2.3-2 4-0.9 2.5 1.5 4.4 5.4 4.4 8.7 0 0.3 0 0.6-0.1 0.8 1.4 1.5 2.3 3.4 2.3 5.5 0 2.3-1.4 3.3-3.1 2.3l-11.6-6.8c-2-1.5-3.2-3.8-3.2-6.3 0-1.8 0.9-2.9 2.2-2.8z"/>
	</g>
	<path id="Layer" class="s47" d="m121.2 115.2v2.2c0 0.5-0.3 1.1-0.8 1.3l-0.3 0.2c-1.3 0.8-2.9 0.8-4.2 0.1l-3.9-2.1c-0.3-0.2-0.4-0.6-0.3-0.9 0.1-0.1 0.1-0.2 0.3-0.3 0.7-0.6 1.5-0.9 2.4-1 0.4 0.1 0.8 0.1 1.1 0.1l1.8 0.2z"/>
	<path id="Layer" class="s2" d="m112 116.4l3.9 2.1c1.3 0.7 2.9 0.7 4.2-0.1l0.3-0.2c0.5-0.3 0.8-0.8 0.8-1.3v0.5c0 0.5-0.3 1.1-0.8 1.3l-0.3 0.2c-1.3 0.8-2.9 0.8-4.2 0.1l-3.9-2.1c-0.3-0.2-0.4-0.5-0.3-0.8z"/>
	<path id="Layer" class="s48" d="m114.9 116.2l-0.5-0.2 0.5-1.1h0.6zm0.9 0.2l-0.5-0.2 0.6-1.2 0.5 0.1z"/>
	<path id="Layer" class="s47" d="m114.9 119.7v2.2c0 0.6-0.3 1.1-0.8 1.3l-0.3 0.2c-1.3 0.8-2.9 0.8-4.2 0.1l-3.9-2.1c-0.3-0.2-0.4-0.6-0.3-0.9 0.1-0.1 0.1-0.2 0.3-0.3 0.7-0.6 1.5-0.9 2.4-1 0.4 0.1 0.8 0.1 1.1 0.1l1.8 0.2z"/>
	<path id="Layer" class="s2" d="m105.6 120.9l3.9 2.1c1.3 0.7 2.9 0.7 4.2-0.1l0.3-0.2c0.5-0.3 0.8-0.8 0.8-1.3v0.5c0 0.5-0.3 1.1-0.8 1.3l-0.3 0.2c-1.3 0.8-2.9 0.8-4.2 0.1l-3.9-2.1c-0.3-0.2-0.4-0.5-0.3-0.8z"/>
	<path id="Layer" class="s49" d="m113.5 79l-7.3-4.2c-0.8-0.4-1-1.4-0.6-2.2 0.4-0.8 1.4-1 2.2-0.6l7.3 4.2c0.5 0.3 0.8 0.8 0.8 1.4 0 0.9-0.7 1.6-1.6 1.6-0.3 0-0.6-0.1-0.8-0.2z"/>
	<path id="Layer" class="s49" d="m108.5 75c0.1 0.3-0.1 0.5-0.3 0.5l-1.8 0.4c-0.2 0-0.4-0.1-0.4-0.3v-0.1c0-0.2 0.1-0.4 0.3-0.5l1.8-0.4c0.2 0.1 0.4 0.2 0.4 0.4z"/>
	<path id="Layer" class="s50" d="m117.2 115.4l-1.3-27.9c0-1.2 2.2-2.1 3.4-2.1 1.2 0 2.1 0.9 2.1 2.1l-0.9 14.6 0.7 13.4v0.1c0 1.1-0.8 2-1.9 2-1.1 0-2.1-1-2.1-2.2z"/>
	<path id="Layer" class="s50" d="m110.6 120v-27.9c0-1.2 0.9-2.1 2.1-2.1 1.1 0 3.4 0.9 3.4 2.1l-1.6 13.6 0.3 14.3c0 1.2-0.9 2.1-2.1 2.1-1.1 0-2.1-0.9-2.1-2.1z"/>
	<path id="Layer" class="s51" d="m120.8 85.1l0.9 6.7c0 0.8-0.5 1.6-1.2 2.1l-5.5 3.1c-1.1 0.6-2.4 0.2-3-0.8-0.2-0.3-0.3-0.7-0.3-1.1v-13.7c0-0.8-1.8-0.3-1-0.7l7.7-4.5c1.4-0.8 2.4 7.2 2.4 8.9z"/>
	<path id="Layer" class="s46" d="m121.5 74.3l-0.4 6.5c0.1 1.4 0.1 2.8 0.2 4.2 0.2 2.2 0.4 4.5 0.4 6.7-0.1 0.5-1.5 1.6-3.3 2.5-0.2 0.1-0.3-4.2-0.5-4.1-0.2 0.1-0.3 4.5-0.5 4.6-2.3 1-5.1 1.7-7 0.8l0.2-8-0.4-5c-0.2-3.4-0.9-7.9 2.5-10 0.1-0.1 0.3-0.2 0.4-0.3l3.6-1.9c0.8-0.5 1.9-0.5 2.7 0 1.4 0.9 2.2 2.4 2.1 4z"/>
	<path id="Layer" class="s48" d="m108.5 120.7l-0.5-0.2 0.5-1.1h0.6zm1 0.2l-0.5-0.2 0.6-1.2 0.5 0.1z"/>
	<path id="Layer" class="s49" d="m114.8 71.3v-5c0-0.7 0.6-1.3 1.3-1.3 0.7 0 1.3 0.6 1.3 1.3v5c0 0.7-0.6 1.3-1.3 1.3-0.7 0-1.3-0.6-1.3-1.3z"/>
	<path id="Layer" class="s49" d="m116.2 71h-0.5c-2.6 0-4.7-2.1-4.7-4.7v-3.7h5.2c0.6 0 1 0.5 1 1v6.4c0 0.6-0.4 1-1 1z"/>
	<path id="Layer" class="s21" d="m109.4 60.8c0.2-0.3 0.5-0.6 0.9-0.7 0.7-0.1 1.4-0.2 2.1-0.2 0.7-0.1 1.5-0.1 2.2-0.1 1.5 0.1 2.9 0.6 4.1 1.4q1 0.6 1.2 1.8c0.3 1.1 0.4 2.3 0.3 3.5-0.2 1.2-0.7 2.2-1.5 3.1-0.2 0.3-0.6 0.6-0.9 0.8-1.5 0.6-2.4-1.9-2.6-3-0.1-0.4-0.2-0.8-0.6-0.9-0.3-0.1-0.5 0-0.7 0.3-0.2 0.2-0.3 0.5-0.3 0.7 0 0.1-0.1 0.3-0.2 0.4-0.1 0.1-0.3 0.2-0.4 0.1l-0.1-2.5c0-0.5 0.1-1.3-0.2-1.7-0.3-0.3-1-0.3-1.3-0.5-0.6-0.1-1.2-0.4-1.6-0.8-0.4-0.4-0.5-0.9-0.3-1.4-0.2-0.1-0.2-0.2-0.1-0.3z"/>
	<path id="Layer" class="s21" d="m114.8 70.5c-0.2 0.3-0.4 0.5-0.7 0.6-0.3 0.1-0.6 0.1-0.9 0.1-0.9 0-1.7-0.5-2.2-1.2-0.3-0.6-0.4-1.2-0.4-1.8 0-0.2 0-0.8 0.3-0.9 0.2 0 0.5 0.5 0.5 0.7 0 0.2 0 0.5 0.1 0.7 0.2 0.3 0.5 0.3 0.8 0.2 0.7-0.4 0.6-1.6 0.6-2.2 0.2 0 0.4 0.1 0.6 0.1v0.5c0.1 0.8 0.8 1.2 1.1 2.1 0.1 0.3 0.2 0.6 0.2 1.1z"/>
	<path id="Layer" class="s49" d="m102.8 79.6c-0.3 0-0.4-0.2-0.4-0.3v-1.6c0-0.2 0.2-0.3 0.3-0.3h0.1c0.2 0 0.3 0.2 0.3 0.3v1.6c0 0.1-0.1 0.3-0.3 0.3z"/>
	<path id="Layer" class="s52" d="m111.5 82.7c-0.3 0.6-0.7 1-1.2 1.4l-0.1-1.3c0-0.5-0.1-1.1-0.1-1.6 0-0.6 0-1.1 0.1-1.7l1.6-3.2c0.3-0.6 1-0.9 1.6-0.6 0 0 0.1 0 0.1 0.1 0.6 0.4 0.8 1.2 0.5 1.8z"/>
	<path id="Layer" class="s49" d="m104.4 83.6l-4.4-3.5c-0.6-0.5-0.7-1.4-0.2-2 0.5-0.6 1.4-0.7 2-0.2l4.4 3.5 0.1 0.1c0.7 0.4 1.6 0.2 2-0.5l3.3-5.2c0.4-0.7 1.3-0.9 2-0.5 0.7 0.4 0.9 1.3 0.5 2l-3.3 5.2c-0.8 1.2-2.2 2-3.7 2-0.9 0-1.9-0.3-2.7-0.9z"/>
	<path id="Layer" class="s46" d="m110.5 80.6c-0.6-0.3-1.1-0.7-1.3-1.3l2.4-3.7c0.5-0.8 1.5-1 2.2-0.5 0.7 0.5 1 1.5 0.5 2.2l-2 3.2c-0.2 0.3-0.4 0.7-0.6 1.1-0.4-0.5-0.8-0.8-1.2-1z"/>
	<path id="Layer" class="s53" d="m42.3 105.8c-0.6 0-1.1-0.5-1.1-1.1 0-0.4 0.2-0.8 0.6-1l26.5-15.4c0.5-0.4 1.2-0.2 1.6 0.3 0.4 0.5 0.2 1.2-0.3 1.6 0 0-0.1 0.1-0.2 0.1l-26.5 15.4c-0.2 0-0.4 0.1-0.6 0.1z"/>
	<path id="Layer" class="s54" d="m42.2 105c-0.1 0-0.3-0.1-0.3-0.3 0-0.1 0.1-0.2 0.1-0.2l26.8-15.5c0.1-0.1 0.3 0 0.4 0.1 0.1 0.1 0 0.3-0.1 0.3l-26.7 15.5c-0.1 0.1-0.2 0.1-0.2 0.1z"/>
	<path id="Layer" class="s55" d="m36.1 101.8c-0.3-0.5-0.1-1.2 0.4-1.5l26.5-15.4c0.5-0.4 1.2-0.2 1.6 0.3 0.4 0.5 0.2 1.2-0.3 1.6-0.1 0-0.1 0.1-0.2 0.1l-26.5 15.4c-0.5 0.2-1.2 0.1-1.5-0.5z"/>
	<path id="Layer" class="s56" d="m37 101.6c-0.1 0-0.3-0.1-0.3-0.3 0-0.1 0.1-0.2 0.1-0.2l26.7-15.5c0.1-0.1 0.3 0 0.4 0.1 0.1 0.1 0 0.3-0.1 0.3l-26.8 15.6c0-0.1 0 0 0 0z"/>
	<path id="Layer" class="s57" d="m31.1 97.3l24.8 14.3c1.2 0.7 1.6 2.1 0.9 3.3q-0.3 0.6-0.9 0.9l-24.9 13.9c-1.6 0.9-3.4 0.9-5 0l-24.8-13.9c-1.2-0.7-1.6-2.1-0.9-3.3q0.3-0.6 0.9-0.9l24.8-14.3c1.6-0.9 3.5-0.9 5.1 0z"/>
	<path id="Layer" class="s58" d="m31 97.4l24.6 14.2c1.2 0.7 1.6 2.1 0.9 3.3q-0.3 0.6-0.9 0.9l-24.6 13.8c-1.5 0.9-3.4 0.9-5 0l-24.7-13.9c-1.2-0.7-1.6-2.1-0.9-3.3q0.3-0.6 0.9-0.9l24.7-14.1c1.6-0.9 3.5-0.9 5 0z"/>
	<path id="Layer" class="s58" d="m31 97.4l24.5 14.1c1.1 0.7 1.6 2.1 0.9 3.3q-0.3 0.6-0.9 0.9l-24.5 13.8c-1.5 0.9-3.4 0.9-4.9 0l-24.6-13.8c-1.1-0.7-1.6-2.1-0.9-3.3q0.3-0.6 0.9-0.9l24.5-14.1c1.6-0.8 3.5-0.8 5 0z"/>
	<path id="Layer" class="s59" d="m31 97.5l24.4 14.1c1.1 0.6 1.5 2.1 0.9 3.2q-0.3 0.6-0.9 0.9l-24.4 13.7c-1.5 0.9-3.4 0.9-4.9 0l-24.5-13.7c-1.1-0.6-1.5-2.1-0.9-3.2q0.3-0.6 0.9-0.9l24.4-14c1.6-0.9 3.5-0.9 5-0.1z"/>
	<path id="Layer" class="s60" d="m31 97.6l24.3 14c1.1 0.6 1.5 2.1 0.9 3.2q-0.3 0.6-0.9 0.9l-24.3 13.6c-1.5 0.9-3.4 0.9-4.9 0l-24.3-13.6c-1.1-0.6-1.5-2.1-0.9-3.2q0.3-0.6 0.9-0.9l24.3-14c1.5-0.9 3.3-0.9 4.9 0z"/>
	<path id="Layer" class="s60" d="m31 97.7l24.2 13.9c1.1 0.6 1.5 2.1 0.9 3.2q-0.3 0.6-0.9 0.9l-24.2 13.6c-1.5 0.8-3.4 0.8-4.9 0l-24.2-13.6c-1.1-0.6-1.5-2.1-0.9-3.2q0.3-0.6 0.9-0.9l24.2-13.9c1.5-0.9 3.3-0.9 4.9 0z"/>
	<path id="Layer" class="s60" d="m31 97.8l24 13.8c1.1 0.6 1.5 2.1 0.9 3.2q-0.3 0.6-0.9 0.9l-24.1 13.5c-1.5 0.8-3.3 0.8-4.8 0l-24.1-13.5c-1.1-0.6-1.5-2.1-0.9-3.2q0.3-0.6 0.9-0.9l24.1-13.8c1.5-0.9 3.4-0.9 4.9 0z"/>
	<path id="Layer" class="s60" d="m30.9 97.9l23.9 13.8c1.1 0.6 1.5 2.1 0.9 3.2q-0.3 0.6-0.9 0.9l-23.9 13.4c-1.5 0.8-3.3 0.8-4.8 0l-24-13.5c-1.1-0.6-1.5-2.1-0.9-3.2q0.3-0.6 0.9-0.9l23.9-13.8c1.6-0.8 3.4-0.8 4.9 0.1z"/>
	<path id="Layer" class="s61" d="m30.9 97.9l23.8 13.7c1.1 0.6 1.5 2 0.9 3.2q-0.3 0.6-0.9 0.9l-23.8 13.3c-1.5 0.8-3.3 0.8-4.8 0l-23.8-13.3c-1.1-0.6-1.5-2-0.9-3.2q0.3-0.6 0.9-0.9l23.8-13.7c1.5-0.8 3.3-0.8 4.8 0z"/>
	<path id="Layer" class="s61" d="m30.9 98l23.7 13.6c1.1 0.6 1.5 2.1 0.8 3.2-0.2 0.3-0.5 0.6-0.8 0.8l-23.7 13.3c-1.5 0.8-3.3 0.8-4.8 0l-23.7-13.3c-1.1-0.6-1.5-2.1-0.8-3.2 0.2-0.3 0.5-0.6 0.8-0.8l23.7-13.6c1.5-0.9 3.3-0.9 4.8 0z"/>
	<path id="Layer" class="s62" d="m30.9 98.1l23.6 13.6c1.1 0.6 1.5 2 0.9 3.1-0.2 0.4-0.5 0.6-0.9 0.9l-23.6 13.2c-1.5 0.8-3.3 0.8-4.7 0l-23.6-13.3c-1.1-0.6-1.5-2-0.9-3.1 0.2-0.4 0.5-0.6 0.9-0.9l23.6-13.6c1.4-0.8 3.2-0.8 4.7 0.1z"/>
	<path id="Layer" class="s63" d="m30.9 98.2l23.4 13.5c1.1 0.6 1.5 2 0.9 3.1q-0.3 0.6-0.9 0.9l-23.5 13.2c-1.5 0.8-3.3 0.8-4.7 0l-23.4-13.3c-1.1-0.6-1.5-2-0.9-3.1q0.3-0.6 0.9-0.9l23.5-13.5c1.4-0.8 3.2-0.8 4.7 0.1z"/>
	<path id="Layer" class="s64" d="m30.9 98.2l23.3 13.4c1.1 0.6 1.5 2 0.9 3.1q-0.3 0.6-0.9 0.9l-23.3 13.1c-1.5 0.8-3.2 0.8-4.7 0l-23.4-13.1c-1.1-0.6-1.5-2-0.9-3.1q0.3-0.6 0.9-0.9l23.3-13.4c1.5-0.8 3.3-0.8 4.8 0z"/>
	<path id="Layer" class="s65" d="m30.9 98.3l23.2 13.4c1.1 0.6 1.5 2 0.9 3.1q-0.3 0.6-0.9 0.9l-23.2 13c-1.4 0.8-3.2 0.8-4.7 0l-23.2-13.1c-1.1-0.6-1.5-2-0.9-3.1q0.3-0.6 0.9-0.9l23.2-13.4c1.4-0.7 3.2-0.7 4.7 0.1z"/>
	<path id="Layer" class="s66" d="m30.9 98.4l23.1 13.3c1.1 0.6 1.5 2 0.8 3.1-0.2 0.4-0.5 0.6-0.8 0.8l-23.1 13c-1.4 0.8-3.2 0.8-4.7 0l-23.1-13c-1.1-0.6-1.5-2-0.8-3.1 0.2-0.4 0.5-0.6 0.8-0.8l23.1-13.3c1.4-0.8 3.2-0.8 4.7 0z"/>
	<path id="Layer" class="s67" d="m30.9 98.4l23 13.2c1.1 0.6 1.5 2 0.8 3.1-0.2 0.4-0.5 0.6-0.8 0.8l-23 12.9c-1.4 0.8-3.2 0.8-4.7 0l-23-12.9c-1.1-0.6-1.5-2-0.8-3.1 0.2-0.4 0.5-0.6 0.8-0.8l23-13.2c1.4-0.8 3.2-0.8 4.7 0z"/>
	<path id="Layer" class="s68" d="m30.9 98.5l22.8 13.2c1.1 0.6 1.4 2 0.8 3-0.2 0.4-0.5 0.6-0.8 0.8l-22.9 12.8c-1.4 0.8-3.2 0.8-4.6 0l-22.9-12.7c-1.1-0.6-1.4-2-0.8-3 0.2-0.4 0.5-0.6 0.8-0.8l22.8-13.2c1.5-0.9 3.3-0.9 4.8-0.1z"/>
	<path id="Layer" class="s69" d="m30.8 98.6l22.7 13.1c1.1 0.6 1.4 2 0.8 3-0.2 0.4-0.5 0.6-0.8 0.8l-22.7 12.8c-1.4 0.8-3.2 0.8-4.6 0l-22.7-12.7c-1.1-0.6-1.4-2-0.8-3 0.2-0.4 0.5-0.6 0.8-0.8l22.7-13.1c1.4-0.9 3.2-0.9 4.6-0.1z"/>
	<path id="Layer" class="s70" d="m30.8 98.7l22.6 13c1.1 0.6 1.4 2 0.8 3-0.2 0.3-0.5 0.6-0.8 0.8l-22.6 12.7c-1.4 0.8-3.1 0.8-4.6 0l-22.6-12.6c-1.1-0.6-1.4-2-0.8-3 0.2-0.3 0.5-0.6 0.8-0.8l22.6-13c1.4-0.9 3.2-0.9 4.6-0.1z"/>
	<path id="Layer" class="s71" d="m30.8 98.8l22.5 12.9c1.1 0.6 1.4 1.9 0.8 3-0.2 0.3-0.5 0.6-0.8 0.8l-22.5 12.6c-1.4 0.8-3.1 0.8-4.5 0l-22.6-12.6c-1.1-0.6-1.4-1.9-0.8-3 0.2-0.3 0.5-0.6 0.8-0.8l22.5-12.9c1.4-0.8 3.2-0.8 4.6 0z"/>
	<path id="Layer" class="s72" d="m30.8 98.9l22.4 12.9c1 0.6 1.4 1.9 0.8 3-0.2 0.3-0.5 0.6-0.8 0.8l-22.4 12.6c-1.4 0.8-3.1 0.8-4.5 0l-22.4-12.7c-1-0.6-1.4-1.9-0.8-3 0.2-0.3 0.5-0.6 0.8-0.8l22.4-12.9c1.3-0.7 3.1-0.7 4.5 0.1z"/>
	<path id="Layer" class="s73" d="m30.8 98.9l22.2 12.8c1 0.6 1.4 1.9 0.8 3-0.2 0.3-0.5 0.6-0.8 0.8l-22.3 12.5c-1.4 0.8-3.1 0.8-4.5 0l-22.2-12.5c-1-0.6-1.4-1.9-0.8-3 0.2-0.3 0.5-0.6 0.8-0.8l22.2-12.8c1.4-0.8 3.2-0.8 4.6 0z"/>
	<path id="Layer" class="s74" d="m30.8 99l22.1 12.7c1 0.6 1.4 1.9 0.8 2.9-0.2 0.3-0.5 0.6-0.8 0.8l-22.1 12.4c-1.4 0.8-3.1 0.8-4.5 0l-22.2-12.3c-1-0.6-1.4-1.9-0.8-2.9 0.2-0.3 0.5-0.6 0.8-0.8l22.2-12.8c1.4-0.8 3.1-0.8 4.5 0z"/>
	<path id="Layer" class="s75" d="m30.8 99.1l22 12.6c1 0.6 1.4 1.9 0.8 2.9-0.2 0.3-0.5 0.6-0.8 0.8l-22 12.4c-1.4 0.8-3.1 0.8-4.4 0l-22-12.4c-1-0.6-1.4-1.9-0.8-2.9 0.2-0.3 0.5-0.6 0.8-0.8l22-12.6c1.3-0.8 3-0.8 4.4 0z"/>
	<path id="Layer" class="s76" d="m30.8 99.2l21.9 12.6c1 0.6 1.4 1.9 0.8 2.9-0.2 0.3-0.5 0.6-0.8 0.8l-21.9 12.3c-1.4 0.8-3 0.8-4.4 0l-22-12.3c-1-0.6-1.4-1.9-0.8-2.9 0.2-0.3 0.5-0.6 0.8-0.8l21.9-12.6c1.4-0.8 3.1-0.8 4.5 0z"/>
	<path id="Layer" class="s77" d="m30.7 99.3l21.8 12.5c1 0.6 1.4 1.9 0.8 2.9-0.2 0.3-0.5 0.6-0.8 0.8l-21.8 12.2c-1.4 0.8-3 0.8-4.4 0l-21.8-12.2c-1-0.6-1.4-1.9-0.8-2.9 0.2-0.3 0.5-0.6 0.8-0.8l21.8-12.5c1.4-0.8 3.1-0.8 4.4 0z"/>
	<path id="Layer" class="s78" d="m30.7 99.3l21.6 12.5c1 0.6 1.4 1.9 0.8 2.9-0.2 0.3-0.5 0.6-0.8 0.8l-21.7 12.2c-1.4 0.8-3 0.8-4.4 0l-21.5-12.2c-1-0.6-1.4-1.9-0.8-2.9 0.2-0.3 0.5-0.6 0.8-0.8l21.6-12.5c1.4-0.7 3-0.7 4.4 0z"/>
	<path id="Layer" class="s79" d="m30.7 99.4l21.5 12.4c1 0.6 1.4 1.9 0.8 2.9-0.2 0.3-0.5 0.6-0.8 0.8l-21.5 12.1c-1.3 0.8-3 0.8-4.3 0l-21.6-12.1c-1-0.6-1.4-1.9-0.8-2.9 0.2-0.3 0.5-0.6 0.8-0.8l21.5-12.4c1.4-0.8 3.1-0.7 4.4 0z"/>
	<path id="Layer" class="s80" d="m30.7 99.5l21.4 12.3c1 0.6 1.4 1.8 0.8 2.8-0.2 0.3-0.5 0.6-0.8 0.8l-21.4 12c-1.3 0.8-3 0.8-4.3 0l-21.4-12c-1-0.6-1.4-1.8-0.8-2.8 0.2-0.3 0.5-0.6 0.8-0.8l21.4-12.3c1.3-0.8 2.9-0.8 4.3 0z"/>
	<path id="Layer" class="s81" d="m30.6 99.6l21.3 12.2c1 0.6 1.3 1.8 0.8 2.8-0.2 0.3-0.5 0.6-0.8 0.8l-21.3 12c-1.3 0.7-3 0.7-4.3 0l-21.3-12c-1-0.6-1.3-1.8-0.8-2.8 0.2-0.3 0.5-0.6 0.8-0.8l21.3-12.2c1.4-0.8 3-0.8 4.3 0z"/>
	<path id="Layer" class="s82" d="m30.7 99.7l21.2 12.2c1 0.6 1.3 1.8 0.8 2.8-0.2 0.3-0.5 0.6-0.8 0.8l-21.2 11.9c-1.3 0.7-2.9 0.7-4.3 0l-21.2-12c-1-0.6-1.3-1.8-0.8-2.8 0.2-0.3 0.5-0.6 0.8-0.8l21.2-12.2c1.3-0.7 3-0.7 4.3 0.1z"/>
	<path id="Layer" class="s83" d="m30.7 99.7l21 12.1c1 0.6 1.3 1.8 0.8 2.8-0.2 0.3-0.4 0.6-0.8 0.8l-21.1 11.8c-1.3 0.7-2.9 0.7-4.2 0l-21.1-11.8c-1-0.6-1.3-1.8-0.8-2.8 0.2-0.3 0.4-0.6 0.8-0.8l21-12.1c1.4-0.7 3-0.7 4.4 0z"/>
	<path id="Layer" class="s84" d="m30.7 99.8l20.9 12c1 0.6 1.3 1.8 0.8 2.8-0.2 0.3-0.4 0.6-0.8 0.8l-20.9 11.8c-1.3 0.7-2.9 0.7-4.2 0l-21-11.7c-1-0.6-1.3-1.8-0.8-2.8 0.2-0.3 0.4-0.6 0.8-0.8l20.9-12c1.3-0.9 2.9-0.9 4.3-0.1z"/>
	<path id="Layer" class="s85" d="m30.6 99.9l20.8 12c1 0.6 1.3 1.8 0.8 2.8-0.2 0.3-0.4 0.6-0.8 0.8l-20.8 11.5c-1.3 0.7-2.9 0.7-4.2 0l-20.8-11.6c-1-0.6-1.3-1.8-0.8-2.8 0.2-0.3 0.4-0.6 0.8-0.8l20.8-12c1.3-0.7 2.9-0.7 4.2 0.1z"/>
	<path id="Layer" class="s86" d="m30.6 100l20.7 11.9c1 0.5 1.3 1.7 0.8 2.7-0.2 0.3-0.5 0.6-0.8 0.8l-20.7 11.6c-1.3 0.7-2.9 0.7-4.2 0l-20.7-11.6c-1-0.5-1.3-1.7-0.8-2.7 0.2-0.3 0.5-0.6 0.8-0.8l20.7-11.9c1.3-0.8 2.9-0.8 4.2 0z"/>
	<path id="Layer" class="s87" d="m30.7 100l20.6 11.8c1 0.5 1.3 1.7 0.8 2.7-0.2 0.3-0.5 0.6-0.8 0.8l-20.6 11.5c-1.3 0.7-2.9 0.7-4.1 0l-20.7-11.4c-1-0.5-1.3-1.7-0.8-2.7 0.2-0.3 0.5-0.6 0.8-0.8l20.5-11.9c1.3-0.7 3-0.7 4.3 0z"/>
	<path id="Layer" class="s88" d="m30.6 100.1l20.5 11.8c1 0.5 1.3 1.8 0.8 2.7-0.2 0.3-0.4 0.6-0.8 0.8l-20.5 11.5c-1.3 0.7-2.8 0.7-4.1 0l-20.5-11.5c-1-0.5-1.3-1.8-0.8-2.7 0.2-0.3 0.4-0.6 0.8-0.8l20.4-11.8c1.3-0.7 2.9-0.7 4.2 0z"/>
	<path id="Layer" class="s89" d="m30.6 100.2l20.3 11.7c1 0.6 1.3 1.8 0.7 2.7-0.2 0.3-0.4 0.5-0.7 0.7l-20.3 11.4c-1.3 0.7-2.8 0.7-4.1 0l-20.4-11.4c-1-0.6-1.3-1.8-0.7-2.7 0.2-0.3 0.4-0.5 0.7-0.7l20.3-11.7c1.3-0.7 2.9-0.7 4.2 0z"/>
	<path id="Layer" class="s90" d="m30.6 100.3l20.2 11.6c0.9 0.6 1.3 1.8 0.7 2.7-0.2 0.3-0.4 0.5-0.7 0.7l-20.2 11.3c-1.3 0.7-2.8 0.7-4.1 0l-20.2-11.3c-0.9-0.6-1.3-1.8-0.7-2.7 0.2-0.3 0.4-0.5 0.7-0.7l20.2-11.6c1.2-0.8 2.8-0.8 4.1 0z"/>
	<path id="Layer" class="s91" d="m30.6 100.4l20 11.6c0.9 0.6 1.2 1.8 0.7 2.7-0.2 0.3-0.4 0.5-0.7 0.7l-20.1 11.3c-1.3 0.7-2.8 0.7-4 0l-20.1-11.4c-0.9-0.6-1.2-1.8-0.7-2.7 0.2-0.3 0.4-0.5 0.7-0.7l20.1-11.6c1.2-0.7 2.8-0.7 4.1 0.1z"/>
	<path id="Layer" class="s92" d="m30.5 100.4l19.9 11.5c0.9 0.5 1.3 1.7 0.7 2.7-0.2 0.3-0.4 0.6-0.7 0.7l-19.9 11.2c-1.2 0.7-2.7 0.7-4 0l-20-11.2c-0.9-0.5-1.3-1.7-0.7-2.7 0.2-0.3 0.4-0.6 0.7-0.7l19.9-11.5c1.3-0.7 2.8-0.7 4.1 0z"/>
	<path id="Layer" class="s93" d="m30.6 100.5l19.8 11.4c0.9 0.5 1.3 1.7 0.7 2.6-0.2 0.3-0.4 0.6-0.7 0.7l-19.9 11.2c-1.2 0.7-2.8 0.7-4 0l-19.8-11.1c-0.9-0.5-1.3-1.7-0.7-2.6 0.2-0.3 0.4-0.6 0.7-0.7l19.8-11.4c1.3-0.8 2.8-0.8 4.1-0.1z"/>
	<path id="Layer" class="s94" d="m30.5 100.6l19.8 11.4c0.9 0.5 1.2 1.7 0.7 2.6-0.2 0.3-0.4 0.5-0.7 0.7l-19.7 11.1c-1.2 0.7-2.8 0.7-4 0l-19.8-11.1c-0.9-0.5-1.2-1.7-0.7-2.6 0.2-0.3 0.4-0.5 0.7-0.7l19.7-11.3c1.3-0.8 2.8-0.8 4-0.1z"/>
	<path id="Layer" class="s95" d="m30.5 100.7l19.6 11.3c0.9 0.5 1.2 1.7 0.7 2.6-0.2 0.3-0.4 0.5-0.7 0.7l-19.6 11c-1.2 0.7-2.7 0.7-3.9 0l-19.6-11c-0.9-0.5-1.2-1.7-0.7-2.6 0.2-0.3 0.4-0.5 0.7-0.7l19.6-11.3c1.2-0.7 2.7-0.7 3.9 0z"/>
	<path id="Layer" class="s96" d="m30.5 100.7l19.5 11.3c0.9 0.5 1.2 1.7 0.7 2.6-0.2 0.3-0.4 0.6-0.7 0.7l-19.5 10.9c-1.2 0.7-2.7 0.7-3.9 0l-19.5-10.9c-0.9-0.5-1.2-1.7-0.7-2.6 0.2-0.3 0.4-0.6 0.7-0.7l19.5-11.2c1.2-0.8 2.7-0.8 3.9-0.1z"/>
	<path id="Layer" class="s97" d="m30.5 100.8l19.4 11.2c0.9 0.5 1.2 1.7 0.7 2.6-0.2 0.3-0.4 0.5-0.7 0.7l-19.4 10.9c-1.2 0.7-2.7 0.7-3.9 0l-19.4-11c-0.9-0.5-1.2-1.7-0.7-2.6 0.2-0.3 0.4-0.5 0.7-0.7l19.4-11.1c1.2-0.7 2.7-0.7 3.9 0z"/>
	<path id="Layer" class="s98" d="m30.5 100.9l19.3 11.1c0.9 0.5 1.2 1.7 0.7 2.6-0.2 0.3-0.4 0.5-0.7 0.7l-19.3 10.8c-1.2 0.7-2.7 0.7-3.9 0l-19.3-10.9c-0.9-0.5-1.2-1.7-0.7-2.6 0.2-0.3 0.4-0.5 0.7-0.7l19.2-11.1c1.3-0.6 2.8-0.6 4 0.1z"/>
	<path id="Layer" class="s99" d="m30.5 101l19.1 11c0.9 0.5 1.2 1.6 0.7 2.5-0.2 0.3-0.4 0.5-0.7 0.7l-19.1 10.8c-1.2 0.7-2.7 0.7-3.9 0l-19.1-10.8c-0.9-0.5-1.2-1.6-0.7-2.5 0.2-0.3 0.4-0.5 0.7-0.7l19.1-11c1.2-0.7 2.7-0.7 3.9 0z"/>
	<path id="Layer" class="s100" d="m30.5 101.1l19 10.9c0.9 0.5 1.2 1.6 0.7 2.5-0.2 0.3-0.4 0.5-0.7 0.7l-19 10.7c-1.2 0.7-2.6 0.7-3.8 0l-19-10.7c-0.9-0.5-1.2-1.6-0.7-2.5 0.2-0.3 0.4-0.5 0.7-0.7l19-10.9c1.1-0.7 2.6-0.7 3.8 0z"/>
	<path id="Layer" class="s101" d="m30.4 101.1l18.9 10.9c0.9 0.5 1.2 1.6 0.7 2.5-0.2 0.3-0.4 0.5-0.7 0.7l-18.9 10.6c-1.2 0.7-2.6 0.7-3.8 0l-18.9-10.6c-0.9-0.5-1.2-1.6-0.7-2.5 0.2-0.3 0.4-0.5 0.7-0.7l18.9-10.9c1.2-0.6 2.6-0.7 3.8 0z"/>
	<path id="Layer" class="s102" d="m30.5 101.2l18.7 10.8c0.9 0.5 1.2 1.6 0.7 2.5-0.2 0.3-0.4 0.5-0.7 0.7l-18.8 10.5c-1.2 0.7-2.6 0.7-3.8 0l-18.7-10.5c-0.9-0.5-1.2-1.6-0.7-2.5 0.2-0.3 0.4-0.5 0.7-0.7l18.8-10.8c1.1-0.7 2.6-0.7 3.8 0z"/>
	<path id="Layer" class="s21" d="m30.4 101.3l18.7 10.7c0.9 0.5 1.2 1.6 0.7 2.5-0.2 0.3-0.4 0.5-0.7 0.7l-18.7 10.5c-1.2 0.7-2.6 0.7-3.8 0l-18.6-10.5c-0.9-0.5-1.2-1.6-0.7-2.5 0.2-0.3 0.4-0.5 0.7-0.7l18.6-10.7c1.2-0.7 2.7-0.7 3.8 0z"/>
	<path id="Layer" class="s103" d="m30.7 99.2l22.1 10.4v3.3c0 0.9-0.5 1.7-1.2 2.1l-21 11.8c-1.3 0.7-2.9 0.7-4.3 0l-21-11.9c-0.8-0.4-1.2-1.2-1.2-2.1v-3.7l22.2-10c1.4-0.7 3.1-0.7 4.4 0.1z"/>
	<path id="Layer" class="s104" d="m30.7 95.2l21.2 12.2c1 0.6 1.3 1.8 0.8 2.8-0.2 0.3-0.5 0.6-0.8 0.8l-21.2 11.9c-1.3 0.7-2.9 0.7-4.3 0l-21.2-11.9c-1-0.6-1.3-1.8-0.8-2.8 0.2-0.3 0.5-0.6 0.8-0.8l21.2-12.2c1.3-0.8 3-0.8 4.3 0z"/>
	<path id="Layer" class="s105" d="m18.2 114.6c-5.3-3.1-5.3-8 0-11.1 5.3-3.1 14-3.1 19.3 0 5.3 3.1 5.3 8 0 11.1-5.4 3.1-14 3.1-19.3 0z"/>
	<path id="Layer" class="s106" d="m19.6 113.8c-4.5-2.6-4.5-6.8 0-9.4 4.5-2.6 11.9-2.6 16.4 0 4.5 2.6 4.5 6.8 0 9.4-4.5 2.6-11.9 2.6-16.4 0z"/>
	<filter id="f0">
		<feFlood flood-color="#f96e1e" flood-opacity="1" />
		<feBlend mode="normal" in2="SourceGraphic"/>
		<feComposite in2="SourceAlpha" operator="in" />
	</filter>
	<g id="Layer" style="opacity: .4" filter="url(#f0)">
		<path id="Layer" class="s107" d="m18.3 114.6c-5.2-3-5.2-7.9 0-11 5.2-3.1 13.8-3 19.1 0 5.3 3 5.3 7.9 0 11-5.3 3-13.9 3-19.1 0z"/>
		<path id="Layer" class="s108" d="m18.3 114c-5.2-3-5.2-7.9 0-11 5.2-3.1 13.8-3 19.1 0 5.3 3 5.3 7.9 0 11-5.3 3.1-13.9 3-19.1 0z"/>
		<path id="Layer" class="s109" d="m18.3 113.4c-5.2-3-5.2-7.9 0-11 5.2-3.1 13.8-3 19.1 0 5.3 3 5.3 7.9 0 11-5.3 3.1-13.9 3.1-19.1 0z"/>
		<path id="Layer" class="s110" d="m18.3 112.9c-5.2-3-5.2-7.9 0-11 5.2-3.1 13.8-3 19.1 0 5.3 3 5.3 7.9 0 11-5.3 3.1-13.9 3-19.1 0z"/>
		<path id="Layer" class="s111" d="m18.3 112.3c-5.2-3-5.2-7.9 0-11 5.2-3.1 13.8-3 19.1 0 5.3 3 5.3 7.9 0 11-5.3 3.1-13.9 3-19.1 0z"/>
		<path id="Layer" class="s112" d="m18.3 111.7c-5.2-3-5.2-7.9 0-11 5.2-3.1 13.8-3 19.1 0 5.3 3 5.3 7.9 0 11-5.3 3.1-13.9 3.1-19.1 0z"/>
		<path id="Layer" class="s113" d="m18.3 111.2c-5.2-3-5.2-7.9 0-11 5.2-3.1 13.8-3 19.1 0 5.3 3 5.3 7.9 0 11-5.3 3-13.9 3-19.1 0z"/>
		<path id="Layer" class="s114" d="m18.3 110.6c-5.2-3-5.2-7.9 0-11 5.2-3.1 13.8-3 19.1 0 5.3 3 5.3 7.9 0 11-5.3 3.1-13.9 3-19.1 0z"/>
		<path id="Layer" class="s115" d="m18.3 110c-5.2-3-5.2-7.9 0-11 5.2-3.1 13.8-3 19.1 0 5.3 3 5.3 7.9 0 11-5.3 3.1-13.9 3.1-19.1 0z"/>
		<path id="Layer" class="s116" d="m18.3 109.5c-5.2-3-5.2-7.9 0-11 5.2-3.1 13.8-3 19.1 0 5.3 3 5.3 7.9 0 11-5.3 3.1-13.9 3-19.1 0z"/>
		<path id="Layer" class="s117" d="m18.3 108.9c-5.2-3-5.2-7.9 0-11 5.2-3.1 13.8-3 19.1 0 5.3 3 5.3 7.9 0 11-5.3 3.1-13.9 3-19.1 0z"/>
		<path id="Layer" class="s118" d="m18.3 108.3c-5.2-3-5.2-7.9 0-11 5.2-3.1 13.8-3 19.1 0 5.3 3 5.3 7.9 0 11-5.3 3.1-13.9 3.1-19.1 0z"/>
		<path id="Layer" class="s119" d="m18.3 107.8c-5.2-3-5.2-7.9 0-11 5.2-3.1 13.8-3 19.1 0 5.3 3 5.3 7.9 0 11-5.3 3-13.9 3-19.1 0z"/>
		<path id="Layer" class="s120" d="m18.3 107.2c-5.2-3-5.2-7.9 0-11 5.2-3.1 13.8-3 19.1 0 5.3 3 5.3 7.9 0 11-5.3 3.1-13.9 3-19.1 0z"/>
		<path id="Layer" class="s121" d="m18.3 106.7c-5.2-3-5.2-7.9 0-11 5.2-3.1 13.8-3 19.1 0 5.3 3 5.3 7.9 0 11-5.3 3.1-13.9 3-19.1 0z"/>
		<path id="Layer" class="s122" d="m18.3 106.1c-5.2-3-5.2-7.9 0-11 5.2-3.1 13.8-3 19.1 0 5.3 3 5.3 7.9 0 11-5.3 3.1-13.9 3-19.1 0z"/>
		<path id="Layer" class="s123" d="m18.3 105.5c-5.2-3-5.2-7.9 0-11 5.2-3.1 13.8-3 19.1 0 5.3 3 5.3 7.9 0 11-5.3 3-13.9 3-19.1 0z"/>
		<path id="Layer" class="s124" d="m18.3 104.9c-5.2-3-5.2-7.9 0-11 5.2-3.1 13.8-3 19.1 0 5.3 3 5.3 7.9 0 11-5.3 3.1-13.9 3.1-19.1 0z"/>
		<path id="Layer" class="s125" d="m18.3 104.4c-5.2-3-5.2-7.9 0-11 5.2-3.1 13.8-3 19.1 0 5.3 3 5.3 7.9 0 11-5.3 3-13.9 3-19.1 0z"/>
		<path id="Layer" class="s126" d="m18.3 103.9c-5.2-3-5.2-7.9 0-11 5.2-3.1 13.8-3 19.1 0 5.3 3 5.3 7.9 0 11-5.3 2.9-13.9 3-19.1 0z"/>
		<path id="Layer" class="s127" d="m18.3 103.3c-5.2-3-5.2-7.9 0-11 5.2-3.1 13.8-3 19.1 0 5.3 3 5.3 7.9 0 11-5.3 3.1-13.9 3-19.1 0z"/>
		<path id="Layer" class="s128" d="m18.3 102.7c-5.2-3-5.2-7.9 0-11 5.2-3.1 13.8-3 19.1 0 5.3 3 5.3 7.9 0 11-5.3 3.1-13.9 3-19.1 0z"/>
		<path id="Layer" class="s129" d="m18.3 102.1c-5.2-3-5.2-7.9 0-11 5.2-3.1 13.8-3 19.1 0 5.3 3 5.3 7.9 0 11-5.3 3.1-13.9 3-19.1 0z"/>
		<path id="Layer" class="s130" d="m18.3 101.6c-5.2-3-5.2-7.9 0-11 5.2-3.1 13.8-3 19.1 0 5.3 3 5.3 7.9 0 11-5.3 3-13.9 3-19.1 0z"/>
		<path id="Layer" class="s131" d="m18.3 101c-5.2-3-5.2-7.9 0-11 5.2-3.1 13.8-3 19.1 0 5.3 3 5.3 7.9 0 11-5.3 3-13.9 3-19.1 0z"/>
		<path id="Layer" class="s132" d="m18.3 100.4c-5.2-3-5.2-7.9 0-11 5.2-3.1 13.8-3 19.1 0 5.3 3 5.3 7.9 0 11-5.3 3.1-13.9 3-19.1 0z"/>
		<path id="Layer" class="s133" d="m18.3 99.9c-5.2-3-5.2-7.9 0-11 5.2-3.1 13.8-3 19.1 0 5.3 3 5.3 7.9 0 11-5.3 3-13.9 3-19.1 0z"/>
		<path id="Layer" class="s134" d="m18.3 99.3c-5.2-3-5.2-7.9 0-11 5.2-3.1 13.8-3 19.1 0 5.3 3 5.3 7.9 0 11-5.3 3.1-13.9 3-19.1 0z"/>
		<path id="Layer" class="s135" d="m18.3 98.7c-5.2-3-5.2-7.9 0-11 5.2-3.1 13.8-3 19.1 0 5.3 3 5.3 7.9 0 11-5.3 3.1-13.9 3-19.1 0z"/>
		<path id="Layer" class="s136" d="m18.3 98.2c-5.2-3-5.2-7.9 0-11 5.2-3.1 13.8-3 19.1 0 5.3 3 5.3 7.9 0 11-5.3 3-13.9 3-19.1 0z"/>
		<path id="Layer" class="s137" d="m18.3 97.6c-5.2-3-5.2-7.9 0-11 5.2-3.1 13.8-3 19.1 0 5.3 3 5.3 7.9 0 11-5.3 3-13.9 3-19.1 0z"/>
		<path id="Layer" class="s138" d="m18.3 97c-5.2-3-5.2-7.9 0-11 5.2-3.1 13.8-3 19.1 0 5.3 3 5.3 7.9 0 11-5.3 3.1-13.9 3-19.1 0z"/>
		<path id="Layer" class="s139" d="m18.3 96.5c-5.2-3-5.2-7.9 0-11 5.2-3.1 13.8-3 19.1 0 5.3 3 5.3 7.9 0 11-5.3 3.1-13.9 3-19.1 0z"/>
		<path id="Layer" class="s140" d="m18.3 95.9c-5.2-3-5.2-7.9 0-11 5.2-3.1 13.8-3 19.1 0 5.3 3 5.3 7.9 0 11-5.3 3-13.9 3-19.1 0z"/>
		<path id="Layer" class="s141" d="m18.3 95.3c-5.2-3-5.2-7.9 0-11 5.2-3.1 13.8-3 19.1 0 5.3 3 5.3 7.9 0 11-5.3 3.1-13.9 3-19.1 0z"/>
		<path id="Layer" class="s142" d="m18.3 94.8c-5.2-3-5.2-7.9 0-11 5.2-3.1 13.8-3 19.1 0 5.3 3 5.3 7.9 0 11-5.3 3-13.9 3-19.1 0z"/>
		<path id="Layer" class="s143" d="m18.3 94.2c-5.2-3-5.2-7.9 0-11 5.2-3.1 13.8-3 19.1 0 5.3 3 5.3 7.9 0 11-5.3 3.1-13.9 3-19.1 0z"/>
		<path id="Layer" class="s144" d="m18.3 93.6c-5.2-3-5.2-7.9 0-11 5.2-3.1 13.8-3 19.1 0 5.3 3 5.3 7.9 0 11-5.3 3.1-13.9 3-19.1 0z"/>
		<path id="Layer" class="s145" d="m18.3 93.1c-5.2-3-5.2-7.9 0-11 5.2-3.1 13.8-3 19.1 0 5.3 3 5.3 7.9 0 11-5.3 3.1-13.9 3-19.1 0z"/>
		<path id="Layer" class="s146" d="m18.3 92.5c-5.2-3-5.2-7.9 0-11 5.2-3.1 13.8-3 19.1 0 5.3 3 5.3 7.9 0 11-5.3 3.1-13.9 3-19.1 0z"/>
		<path id="Layer" class="s147" d="m18.3 91.9c-5.2-3-5.2-7.9 0-11 5.2-3.1 13.8-3 19.1 0 5.3 3 5.3 7.9 0 11-5.3 3.1-13.9 3-19.1 0z"/>
		<path id="Layer" class="s148" d="m18.3 91.4c-5.2-3-5.2-7.9 0-11 5.2-3.1 13.8-3 19.1 0 5.3 3 5.3 7.9 0 11-5.3 3-13.9 3-19.1 0z"/>
		<path id="Layer" class="s149" d="m18.3 90.8c-5.2-3-5.2-7.9 0-11 5.2-3.1 13.8-3 19.1 0 5.3 3 5.3 7.9 0 11-5.3 3-13.9 3-19.1 0z"/>
		<path id="Layer" class="s150" d="m18.3 90.2c-5.2-3-5.2-7.9 0-11 5.2-3.1 13.8-3 19.1 0 5.3 3 5.3 7.9 0 11-5.3 3-13.9 3-19.1 0z"/>
		<path id="Layer" class="s151" d="m18.3 89.7c-5.2-3-5.2-7.9 0-11 5.2-3.1 13.8-3 19.1 0 5.3 3 5.3 7.9 0 11-5.3 3.1-13.9 3-19.1 0z"/>
		<path id="Layer" class="s152" d="m18.3 89.1c-5.2-3-5.2-7.9 0-11 5.2-3.1 13.8-3 19.1 0 5.3 3 5.3 7.9 0 11-5.3 3.1-13.9 3-19.1 0z"/>
		<path id="Layer" class="s153" d="m18.3 88.6c-5.2-3-5.2-7.9 0-11 5.2-3.1 13.8-3 19.1 0 5.3 3 5.3 7.9 0 11-5.3 2.9-13.9 3-19.1 0z"/>
		<path id="Layer" class="s154" d="m18.3 88c-5.2-3-5.2-7.9 0-11 5.2-3.1 13.8-3 19.1 0 5.3 3 5.3 7.9 0 11-5.3 3-13.9 3-19.1 0z"/>
		<path id="Layer" class="s155" d="m18.3 87.4c-5.2-3-5.2-7.9 0-11 5.2-3.1 13.8-3 19.1 0 5.3 3 5.3 7.9 0 11-5.3 3.1-13.9 3-19.1 0z"/>
		<path id="Layer" class="s156" d="m18.3 86.8c-5.2-3-5.2-7.9 0-11 5.2-3.1 13.8-3 19.1 0 5.3 3 5.3 7.9 0 11-5.3 3.1-13.9 3-19.1 0z"/>
		<path id="Layer" class="s157" d="m18.3 86.3c-5.2-3-5.2-7.9 0-11 5.2-3.1 13.8-3 19.1 0 5.3 3 5.3 7.9 0 11-5.3 3.1-13.9 3-19.1 0z"/>
		<path id="Layer" class="s57" d="m18.3 85.9c-5.2-3-5.2-7.9 0-11 5.2-3.1 13.8-3 19.1 0 5.3 3 5.3 7.9 0 11-5.3 3.1-13.9 3-19.1 0z"/>
	</g>
</svg>