<svg version="1.2" xmlns="http://www.w3.org/2000/svg" viewBox="0 0 32 32" width="32" height="32">
	<title>time-svg</title>
	<style>
		.s0 { fill: #f96e1e } 
	</style>
	<path id="Layer" fill-rule="evenodd" class="s0" d="m16 26.5c-4.8 0-8.8-3.9-8.8-8.8 0-4.8 4-8.7 8.8-8.7 4.8 0 8.8 3.9 8.8 8.8 0 4.8-4 8.7-8.8 8.7zm0-16c-4 0-7.2 3.3-7.2 7.2 0 4 3.3 7.2 7.2 7.2 4 0 7.2-3.3 7.2-7.2 0-3.9-3.2-7.2-7.2-7.2z"/>
	<path id="Layer" fill-rule="evenodd" class="s0" d="m16 20.2c-0.6 0-1.3-0.2-1.7-0.7-0.5-0.5-0.7-1.1-0.7-1.7 0-0.7 0.3-1.3 0.7-1.7 1-1 2.5-1 3.5 0 0.5 0.5 0.7 1.1 0.7 1.7 0 0.6-0.3 1.3-0.7 1.7-0.5 0.5-1.2 0.7-1.8 0.7zm0-3.4c-0.3 0-0.5 0.1-0.7 0.3-0.2 0.2-0.3 0.4-0.3 0.7 0 0.3 0.1 0.5 0.3 0.7 0.4 0.4 1 0.4 1.4 0 0.2-0.2 0.3-0.4 0.3-0.7 0-0.3-0.1-0.5-0.3-0.7-0.2-0.2-0.4-0.3-0.7-0.3z"/>
	<path id="Layer" fill-rule="evenodd" class="s0" d="m17.2 17.3c-0.2 0-0.4-0.1-0.5-0.2-0.3-0.3-0.3-0.8 0-1.1l2.5-2.5c0.3-0.3 0.8-0.3 1.1 0 0.3 0.3 0.3 0.8 0 1.1l-2.5 2.4q-0.3 0.3-0.6 0.3zm-4.9 4.9c-0.2 0-0.4-0.1-0.5-0.2-0.3-0.3-0.3-0.8 0-1.1l2.5-2.5c0.3-0.3 0.8-0.3 1.1 0 0.3 0.3 0.3 0.8 0 1.1l-2.6 2.5c-0.1 0.1-0.3 0.2-0.5 0.2zm3.7-12.2c-1.2 0-2.2-1-2.2-2.2 0-1.2 1-2.2 2.2-2.2 1.2 0 2.2 1 2.2 2.2 0 1.2-1 2.2-2.2 2.2zm0-3c-0.4 0-0.8 0.3-0.8 0.8 0 0.5 0.3 0.8 0.8 0.8 0.5 0 0.8-0.3 0.8-0.8 0-0.5-0.4-0.8-0.8-0.8z"/>
	<path id="Layer" class="s0" d="m16 12c-0.4 0-0.8-0.3-0.8-0.8v-1c0-0.4 0.3-0.8 0.8-0.8 0.5 0 0.8 0.3 0.8 0.8v1c0 0.5-0.4 0.8-0.8 0.8zm0 14c-0.4 0-0.8-0.3-0.8-0.8v-1c0-0.4 0.3-0.8 0.8-0.8 0.5 0 0.8 0.3 0.8 0.8v1c0 0.5-0.4 0.8-0.8 0.8zm-6.5-7.5h-1c-0.4 0-0.8-0.3-0.8-0.8 0-0.5 0.4-0.7 0.8-0.7h1c0.4 0 0.8 0.3 0.8 0.8 0 0.5-0.4 0.7-0.8 0.7zm14 0h-1c-0.4 0-0.8-0.3-0.8-0.8 0-0.5 0.3-0.8 0.8-0.8h1c0.4 0 0.8 0.3 0.8 0.8 0 0.5-0.4 0.8-0.8 0.8z"/>
</svg>